 <svg  version="1.0" xmlns="http://www.w3.org/2000/svg"  width="858.000000pt" height="1752.000000pt" viewBox="0 0 858.000000 1752.000000"  preserveAspectRatio="xMidYMid meet">  <g transform="translate(0.000000,1752.000000) scale(0.100000,-0.100000)" fill="#44b6fd" stroke="none"> <path d="M3175 17131 c-193 -43 -283 -97 -460 -276 -71 -73 -146 -140 -165 -150 -19 -9 -44 -25 -55 -35 -28 -24 -358 -216 -488 -285 -88 -46 -97 -82 -32 -127 81 -56 236 -74 372 -42 73 17 231 24 275 11 20 -5 33 -21 54 -67 15 -33 30 -60 34 -60 4 0 13 -13 20 -30 15 -36 1 -103 -41 -197 -16 -34 -29 -78 -29 -96 0 -45 32 -85 76 -93 42 -8 47 -15 46 -71 -2 -87 -64 -118 -223 -110 -57 3 -120 9 -139 12 -55 10 -74 -17 -79 -117 -3 -71 0 -85 23 -128 19 -35 26 -62 26 -102 0 -36 7 -68 23 -98 18 -37 30 -48 72 -63 27 -10 71 -38 97 -63 106 -99 154 -96 265 18 43 44 105 101 138 127 96 75 143 89 169 49 24 -38 -13 -209 -70 -328 -52 -108 -60 -118 -131 -171 -58 -43 -182 -202 -227 -291 -16 -32 -38 -85 -50 -120 -19 -56 -28 -68 -93 -120 -54 -44 -78 -72 -98 -113 -18 -39 -40 -66 -78 -94 -28 -21 -77 -64 -107 -96 -30 -31 -69 -63 -87 -71 -18 -8 -46 -35 -64 -61 -48 -72 -79 -101 -118 -114 -55 -18 -187 -106 -224 -150 -19 -22 -57 -49 -89 -63 -85 -38 -219 -157 -443 -397 -37 -38 -83 -75 -117 -92 -34 -17 -83 -56 -125 -100 -136 -142 -195 -180 -333 -217 -104 -27 -123 -37 -186 -92 -27 -24 -63 -54 -80 -66 -17 -11 -52 -58 -79 -103 -30 -53 -76 -111 -125 -159 -56 -56 -86 -96 -109 -145 -40 -83 -38 -99 11 -103 35 -3 40 1 70 42 22 32 39 46 55 46 20 0 23 -5 23 -41 0 -78 22 -234 36 -257 12 -18 18 -20 34 -12 10 5 39 10 64 10 36 0 48 4 57 21 14 27 5 104 -16 135 -17 26 -20 70 -6 79 6 3 22 -11 38 -32 15 -20 49 -59 75 -87 40 -43 50 -49 65 -40 26 16 28 75 5 121 -11 21 -22 69 -26 106 l-7 69 39 39 c65 64 107 42 58 -31 -31 -48 -33 -69 -5 -104 34 -44 80 -36 145 23 30 27 75 60 100 73 30 14 63 44 91 80 24 32 48 58 53 58 21 0 172 123 194 159 32 51 56 58 121 35 51 -17 56 -17 122 1 96 26 126 41 223 110 92 66 362 205 398 205 6 0 56 34 111 75 55 41 122 85 149 99 75 38 155 117 205 204 25 42 55 89 67 104 46 60 320 217 347 200 6 -4 14 -23 18 -42 17 -82 52 -162 114 -263 104 -169 138 -236 166 -325 44 -134 56 -192 65 -297 10 -122 41 -217 114 -351 60 -109 80 -165 120 -327 27 -108 27 -109 10 -179 -14 -59 -16 -85 -7 -159 6 -49 16 -95 23 -104 7 -9 29 -15 51 -15 42 0 44 -2 30 -46 -20 -65 -86 -385 -110 -534 -11 -69 -27 -163 -35 -210 -8 -47 -18 -113 -21 -147 -3 -35 -13 -80 -21 -100 -11 -26 -14 -52 -9 -89 4 -35 1 -69 -10 -107 -11 -37 -15 -89 -14 -158 1 -97 -1 -108 -30 -168 -36 -77 -47 -128 -58 -281 -10 -133 -35 -201 -103 -277 -129 -146 -172 -348 -119 -555 12 -46 25 -133 29 -194 12 -164 73 -359 166 -529 30 -55 54 -109 52 -120 -3 -20 -5 -21 -203 -90 -70 -24 -112 -50 -173 -109 -161 -155 -231 -359 -251 -736 -7 -128 -9 -138 -42 -200 -30 -59 -44 -89 -95 -208 -8 -18 -21 -65 -29 -105 -9 -39 -22 -99 -30 -132 -31 -137 -37 -175 -42 -276 -6 -103 3 -226 14 -215 4 3 10 59 14 123 9 135 24 241 45 328 32 129 141 465 155 479 5 6 9 16 9 23 0 19 99 148 113 148 9 0 14 -124 19 -485 10 -736 7 -700 69 -960 60 -251 176 -418 348 -503 47 -22 96 -51 110 -63 75 -63 290 -164 441 -207 345 -100 719 -35 992 172 65 50 119 81 138 81 6 0 44 14 85 31 50 21 93 48 137 88 35 32 76 61 93 65 16 4 50 29 75 54 51 52 47 39 95 357 17 114 38 239 56 335 6 30 14 84 19 120 5 36 13 88 19 115 5 28 13 71 16 98 6 48 13 55 32 36 22 -22 27 40 8 95 -14 42 -19 110 -26 391 -5 187 -14 383 -20 435 -5 52 -14 181 -19 286 -9 208 -24 282 -80 379 -41 72 -74 102 -149 137 -77 36 -117 33 -155 -13 -24 -29 -46 -86 -46 -122 0 -27 -26 -31 -62 -8 -18 11 -55 30 -82 42 -40 19 -52 30 -68 68 -13 31 -18 58 -14 82 10 66 -56 204 -117 246 -45 31 -101 146 -113 231 -5 39 -2 57 15 90 12 23 21 50 21 60 0 24 -31 52 -57 52 -18 0 -62 36 -52 43 2 2 17 11 32 21 16 10 34 31 41 48 17 40 105 143 134 157 13 6 36 11 51 11 44 0 55 22 53 108 l-2 77 56 45 c92 75 266 333 356 527 17 37 41 84 53 103 12 19 32 60 44 90 13 30 49 94 81 141 52 80 93 157 149 284 13 28 31 68 41 90 10 22 32 76 48 120 17 44 41 107 55 140 52 123 169 502 183 594 28 183 12 423 -37 551 -11 30 -24 66 -29 80 -4 14 -18 44 -29 67 -18 36 -20 49 -11 85 16 71 12 225 -10 333 -24 121 -46 187 -94 282 -55 109 -89 248 -90 368 -1 122 13 174 64 228 70 77 82 113 78 226 -3 97 -4 101 -58 207 -30 60 -68 124 -85 144 -85 97 -111 138 -130 213 -21 82 -26 148 -29 357 -2 119 -8 215 -16 245 -82 317 -152 464 -294 613 -69 73 -182 161 -294 229 -101 62 -267 146 -322 164 -14 4 -59 20 -100 36 l-75 28 -35 71 c-33 68 -73 127 -112 166 -18 18 -18 20 9 65 24 41 28 61 32 148 5 130 -15 275 -46 340 -27 54 -52 144 -53 187 0 15 10 48 22 73 20 41 21 49 9 83 -8 20 -30 57 -50 81 -20 24 -49 60 -64 80 -100 129 -123 142 -337 181 -155 28 -540 28 -665 1z m1405 -12351 c0 -13 -60 -42 -135 -66 -49 -16 -90 -19 -225 -19 -166 0 -259 14 -347 51 -17 8 -38 14 -46 14 -18 0 -30 14 -20 24 11 10 773 7 773 -4z"/> <path d="M5697 6113 c-10 -15 2 -111 14 -119 10 -6 10 69 0 106 -4 16 -9 21 -14 13z"/> <path d="M4 5735 c0 -88 2 -123 3 -77 2 46 2 118 0 160 -1 42 -3 5 -3 -83z"/> <path d="M5717 5585 c-10 -27 -22 -72 -27 -100 -4 -27 -13 -66 -20 -85 -57 -160 -70 -192 -102 -260 -54 -115 -90 -184 -117 -225 -91 -134 -121 -171 -199 -251 -131 -132 -197 -184 -317 -248 -27 -14 -57 -30 -65 -35 -88 -53 -336 -117 -510 -132 -310 -27 -568 28 -885 190 -186 96 -288 170 -434 320 -164 167 -243 293 -342 544 -50 128 -54 136 -57 100 -4 -42 6 -79 50 -198 100 -263 233 -450 446 -628 65 -54 202 -147 217 -147 2 0 30 -15 62 -34 127 -74 393 -157 568 -177 44 -5 116 -13 160 -19 54 -6 107 -6 165 1 47 6 119 15 160 19 176 22 426 109 524 184 19 14 38 26 42 26 15 0 151 110 220 177 64 63 196 229 233 293 36 61 132 258 140 285 5 16 19 55 31 85 11 30 25 73 30 95 5 22 19 75 30 119 12 43 20 95 18 115 l-3 36 -18 -50z"/> <path d="M2613 5570 c0 -25 2 -35 4 -22 2 12 2 32 0 45 -2 12 -4 2 -4 -23z"/> </g> </svg> 