<?xml version="1.0" standalone="no"?>
<!DOCTYPE svg PUBLIC "-//W3C//DTD SVG 20010904//EN"
 "http://www.w3.org/TR/2001/REC-SVG-20010904/DTD/svg10.dtd">
<svg version="1.0" xmlns="http://www.w3.org/2000/svg"
 width="1470.000000pt" height="1638.000000pt" viewBox="0 0 1470.000000 1638.000000"
 preserveAspectRatio="xMidYMid meet">
<metadata>
Created by potrace 1.10, written by Peter Selinger 2001-2011
</metadata>
<g transform="translate(0.000000,1638.000000) scale(0.100000,-0.100000)"
fill="#36b300" stroke="none">
<path d="M13460 8860 c0 -6678 2 -7520 15 -7520 13 0 15 842 15 7520 0 6678
-2 7520 -15 7520 -13 0 -15 -842 -15 -7520z"/>
<path d="M4 16130 c0 -52 1 -74 3 -47 2 26 2 68 0 95 -2 26 -3 4 -3 -48z"/>
<path d="M6529 15701 c-42 -5 -87 -15 -100 -24 -13 -9 -45 -21 -71 -26 -60
-14 -109 -44 -172 -107 -77 -78 -106 -118 -106 -149 0 -11 -10 -38 -22 -60
-40 -76 -35 -223 13 -367 24 -73 24 -71 -11 -111 -17 -19 -33 -50 -36 -68 -4
-19 -15 -50 -25 -70 -14 -28 -18 -64 -20 -158 -2 -137 8 -166 69 -187 55 -18
57 -25 44 -117 -7 -46 -12 -100 -12 -121 0 -30 -6 -43 -32 -64 -17 -15 -41
-32 -52 -37 -46 -23 -39 -236 9 -305 21 -30 25 -48 25 -104 0 -67 1 -69 39
-105 22 -20 45 -48 50 -63 6 -16 17 -28 25 -28 7 0 19 -7 26 -15 11 -13 15
-13 21 -3 16 24 9 68 -20 146 -17 42 -32 95 -34 118 -3 23 -12 54 -20 70 -8
16 -17 58 -20 93 -5 54 -2 72 20 120 14 31 35 70 48 86 16 22 25 55 35 130 21
170 18 183 -68 290 -20 24 -23 36 -18 72 3 27 1 51 -6 63 -9 14 -9 22 1 33 7
9 20 56 31 105 10 49 25 103 34 120 20 39 20 84 0 152 -11 36 -14 68 -9 99 4
25 7 80 6 122 -1 61 2 79 18 95 10 12 27 36 36 55 19 37 83 109 98 109 5 0 21
8 35 18 37 26 145 59 215 66 71 8 258 -8 347 -30 36 -8 83 -19 105 -24 22 -5
78 -12 125 -16 109 -7 207 -47 297 -121 12 -10 36 -50 53 -90 32 -76 36 -124
19 -203 -5 -25 -14 -74 -19 -109 -6 -35 -20 -77 -32 -93 -12 -17 -23 -52 -26
-79 -3 -33 -12 -54 -28 -70 -13 -12 -24 -33 -24 -45 0 -13 -5 -26 -10 -29 -15
-9 -40 -73 -40 -101 0 -62 -94 -248 -131 -259 -11 -4 -19 -16 -19 -29 0 -29
-18 -46 -50 -46 -34 0 -96 -71 -133 -153 -15 -33 -44 -80 -65 -105 -22 -26
-51 -73 -65 -105 -14 -31 -33 -60 -42 -63 -32 -13 -72 -132 -82 -249 -4 -44
-1 -53 21 -74 14 -14 26 -32 26 -42 0 -22 47 -79 66 -79 7 0 25 -18 39 -39 13
-22 42 -54 64 -72 22 -17 51 -48 65 -68 40 -57 142 -103 277 -126 57 -10 88
-21 120 -45 24 -17 80 -49 125 -70 77 -37 106 -58 184 -134 63 -62 194 -167
235 -188 22 -11 51 -30 65 -40 54 -43 230 -107 403 -147 98 -24 149 -47 470
-223 18 -10 48 -18 67 -18 54 0 101 -17 134 -49 17 -16 61 -45 99 -64 57 -30
74 -35 114 -30 48 5 60 9 133 48 25 13 60 27 79 31 19 4 64 29 101 55 37 27
74 49 84 49 10 0 25 4 35 10 10 5 52 12 92 15 41 3 117 11 169 17 150 18 159
17 263 -45 51 -31 113 -61 137 -68 41 -11 49 -10 95 14 59 30 122 93 161 162
15 28 32 53 37 56 5 4 38 7 72 7 43 0 76 7 104 21 22 12 50 21 62 21 59 0 228
127 245 184 6 24 23 63 75 181 12 26 33 50 86 95 20 17 28 12 46 -26 28 -59
78 -113 114 -125 43 -14 188 -3 223 17 20 11 45 13 115 7 l90 -8 2 -40 c4 -84
21 -172 41 -216 12 -25 24 -71 28 -101 l6 -56 -43 -25 c-24 -14 -91 -41 -149
-60 -118 -40 -275 -58 -535 -61 -147 -2 -281 -16 -328 -35 -16 -6 -39 -11 -51
-11 -13 0 -29 -7 -36 -15 -7 -8 -27 -15 -44 -15 -37 0 -208 -44 -251 -64 -16
-8 -52 -19 -80 -24 -82 -17 -178 -47 -205 -65 -14 -9 -50 -21 -80 -27 -30 -6
-66 -16 -80 -21 -14 -6 -59 -17 -100 -25 -129 -24 -154 -30 -177 -42 -12 -7
-37 -12 -56 -12 -19 0 -70 -9 -113 -19 -44 -11 -110 -22 -147 -26 -38 -4 -99
-15 -135 -25 -138 -38 -418 -24 -687 34 -66 14 -132 25 -146 26 -14 0 -62 9
-105 19 -44 11 -116 28 -162 39 -45 11 -91 18 -102 15 -10 -3 -36 5 -56 18
-24 14 -50 22 -71 21 -22 -2 -43 5 -60 18 -31 24 -89 41 -118 34 -11 -3 -32
-1 -45 4 -20 8 -38 3 -92 -24 -65 -33 -69 -34 -110 -20 -24 7 -70 18 -103 24
-33 6 -71 13 -85 16 -14 2 -45 12 -70 21 -29 11 -59 15 -83 11 -21 -4 -47 -1
-59 5 -30 16 -125 20 -173 8 -22 -6 -51 -21 -65 -34 -14 -12 -35 -26 -47 -29
-34 -11 -124 -125 -168 -215 -15 -30 -39 -66 -54 -80 -15 -14 -36 -48 -45 -74
-10 -26 -31 -62 -47 -80 -16 -17 -29 -37 -29 -43 0 -7 -13 -25 -29 -40 -16
-15 -38 -46 -47 -68 -10 -23 -32 -59 -49 -81 -17 -22 -37 -54 -44 -71 -6 -17
-25 -45 -42 -63 -16 -18 -39 -52 -51 -74 -11 -23 -29 -54 -40 -69 -11 -16 -40
-67 -64 -115 -25 -49 -63 -113 -84 -143 -22 -30 -40 -61 -40 -69 0 -8 -22 -60
-49 -115 -26 -56 -56 -122 -65 -147 -9 -26 -26 -55 -36 -64 -11 -10 -20 -30
-20 -44 0 -29 -32 -105 -48 -115 -6 -4 -21 -27 -34 -52 -12 -26 -35 -58 -50
-73 -15 -14 -34 -43 -42 -63 -9 -20 -21 -40 -27 -44 -16 -9 -69 -125 -69 -150
0 -11 -3 -24 -7 -28 -13 -13 -33 -81 -33 -114 0 -18 -7 -49 -16 -70 -22 -49
-34 -184 -39 -422 -3 -154 -8 -212 -24 -275 -12 -44 -21 -104 -21 -132 0 -29
-6 -88 -14 -130 -44 -234 -52 -294 -60 -430 -3 -40 -9 -80 -14 -90 -9 -17 -23
-88 -29 -143 -3 -34 -11 -106 -17 -160 -6 -57 -33 -230 -46 -292 -5 -26 -7
-54 -4 -63 4 -8 -1 -26 -10 -40 -9 -13 -16 -36 -16 -51 0 -15 -9 -41 -20 -59
-11 -18 -29 -59 -40 -90 -19 -54 -19 -61 -4 -103 8 -25 12 -52 10 -59 -3 -8 3
-26 13 -41 11 -16 21 -53 25 -88 5 -54 3 -66 -17 -90 -19 -25 -22 -43 -26
-146 -2 -85 0 -118 8 -118 36 0 58 -212 32 -306 -11 -41 -4 -108 17 -164 5
-14 10 -46 10 -72 1 -26 9 -76 18 -110 13 -49 16 -101 14 -238 -1 -96 -3 -449
-5 -785 -3 -668 0 -639 -64 -765 -53 -104 -95 -225 -132 -375 -6 -27 -17 -59
-23 -70 -7 -11 -18 -47 -26 -80 -7 -33 -17 -67 -21 -76 -12 -24 -19 -178 -10
-240 7 -51 14 -64 70 -128 39 -43 63 -79 63 -93 0 -28 -19 -78 -29 -79 -5 0
-24 -2 -43 -3 -19 -2 -71 -9 -115 -15 -54 -9 -124 -11 -215 -6 -74 3 -164 8
-200 10 -70 3 -116 19 -190 64 -52 32 -148 56 -185 47 -37 -9 -107 -61 -140
-102 -31 -41 -95 -167 -95 -189 0 -8 -11 -24 -24 -37 -63 -59 -135 -273 -120
-354 4 -25 1 -42 -12 -62 -10 -15 -26 -44 -36 -64 -12 -27 -30 -44 -62 -59
-40 -20 -49 -21 -88 -10 -23 7 -50 18 -58 24 -27 20 -62 86 -56 104 3 10 8 70
11 133 4 114 -11 237 -35 265 -17 20 -51 137 -45 155 7 23 -19 135 -44 186
-44 91 -172 166 -254 150 -93 -19 -115 -21 -152 -13 -22 5 -59 6 -83 2 -29 -4
-59 0 -100 13 -31 11 -86 25 -122 32 -117 23 -202 49 -234 73 -17 13 -41 27
-53 31 -36 11 -44 28 -32 70 8 31 18 41 54 56 24 10 60 22 78 25 44 9 247 -12
311 -30 27 -8 68 -15 90 -15 24 0 48 -7 60 -18 12 -10 52 -29 89 -41 38 -12
83 -29 100 -38 59 -31 135 -13 189 44 54 58 63 107 73 418 3 77 12 199 21 270
9 72 20 162 24 200 4 39 15 108 24 155 8 47 17 121 20 165 2 44 9 109 15 145
6 36 13 104 16 150 2 47 14 124 26 170 16 63 20 102 15 150 -6 71 -33 190 -47
204 -12 13 -11 82 2 131 6 22 15 68 19 102 5 34 16 76 24 92 9 16 18 48 22 72
7 50 57 156 86 181 16 15 35 16 136 12 l117 -6 57 44 c38 29 66 60 83 93 29
57 55 142 55 178 0 13 7 30 15 37 21 18 44 -3 38 -34 -3 -14 2 -35 11 -48 9
-12 16 -34 16 -47 0 -14 4 -38 9 -55 5 -17 15 -51 22 -76 17 -60 79 -118 175
-164 74 -35 130 -45 149 -27 6 5 27 14 47 20 78 25 122 125 107 244 -8 69 -44
257 -75 397 -8 36 -14 81 -14 101 0 20 -7 42 -15 49 -10 8 -15 31 -15 69 0 37
-7 69 -20 93 -13 25 -18 47 -14 67 3 16 -1 59 -11 96 -9 36 -22 99 -30 138 -8
40 -18 90 -24 112 -6 22 -15 74 -22 115 -6 41 -17 92 -25 113 -8 20 -14 63
-14 93 0 55 -23 180 -41 219 -5 11 -16 73 -24 139 -8 68 -21 129 -30 142 -11
17 -15 44 -14 87 3 62 -8 122 -41 232 -10 33 -21 86 -24 118 -7 64 -27 111
-51 120 -8 4 -15 15 -15 25 0 26 -80 99 -138 125 -43 20 -62 22 -247 21 -226
0 -430 -25 -570 -70 -107 -34 -222 -113 -300 -205 -33 -39 -86 -97 -119 -128
-75 -72 -117 -134 -121 -177 -2 -18 -13 -47 -24 -63 -12 -16 -21 -38 -21 -49
0 -12 -13 -30 -29 -42 -16 -11 -31 -30 -33 -43 -2 -12 -15 -28 -31 -35 -16 -8
-33 -27 -39 -42 -5 -16 -15 -31 -23 -33 -13 -6 -85 -138 -85 -158 0 -29 -121
-249 -195 -354 -47 -66 -93 -133 -103 -149 -9 -16 -29 -43 -43 -60 -15 -17
-42 -56 -62 -86 -42 -64 -128 -155 -282 -296 -106 -97 -195 -209 -195 -244 0
-9 -11 -26 -25 -38 -14 -12 -36 -46 -49 -75 -13 -29 -37 -69 -55 -89 -17 -20
-36 -50 -42 -67 -6 -17 -20 -36 -30 -42 -10 -5 -26 -26 -34 -46 -9 -21 -61
-81 -125 -143 -61 -59 -110 -111 -110 -117 0 -6 -14 -27 -30 -48 -17 -21 -30
-48 -30 -60 0 -34 -29 -62 -90 -85 -30 -12 -65 -31 -77 -42 -18 -17 -27 -19
-55 -10 -18 6 -40 10 -49 9 -8 0 -36 14 -62 31 -25 18 -52 32 -60 32 -7 0 -29
17 -48 38 -20 20 -47 46 -62 56 -15 10 -27 25 -27 32 0 7 -9 31 -21 53 -27 53
-20 63 44 54 134 -18 243 4 314 65 18 15 42 34 55 43 29 21 16 39 -28 39 -19
0 -46 7 -59 16 -29 19 -45 11 -45 -20 0 -37 -25 -49 -110 -54 -108 -6 -150 3
-150 31 1 32 50 83 87 92 43 9 50 22 24 49 -13 13 -21 36 -21 55 l0 33 54 -4
c43 -4 62 -11 91 -36 28 -26 45 -32 80 -32 41 0 75 -18 75 -41 0 -5 9 -9 20
-9 15 0 20 7 20 26 0 27 -6 34 -139 158 -38 34 -50 53 -45 65 3 9 11 36 16 61
5 25 15 56 22 70 7 14 17 42 20 64 4 21 18 56 32 77 13 21 24 42 24 47 0 5 9
17 19 26 11 10 23 32 26 48 4 17 17 40 29 51 30 31 95 134 118 187 11 25 28
54 38 65 30 32 120 186 120 205 0 16 15 38 82 124 12 16 32 51 44 77 12 25 26
48 32 50 5 2 28 39 51 81 24 43 47 80 52 84 5 3 29 36 54 74 24 37 48 70 53
72 12 4 82 123 82 138 0 7 14 29 30 49 59 69 130 170 130 184 0 8 9 22 20 32
11 10 39 53 62 94 22 42 51 87 64 101 13 14 46 63 73 109 28 46 60 90 71 98
11 8 27 27 35 43 8 16 25 40 38 53 12 14 49 59 82 102 33 43 74 91 90 107 17
16 45 43 63 61 18 18 49 60 68 95 20 34 42 62 49 62 7 0 18 14 25 30 7 17 25
48 40 68 15 20 46 75 69 122 24 47 51 94 62 106 10 11 19 32 19 46 0 15 15 46
33 70 40 54 66 92 92 134 77 127 129 210 135 214 15 10 106 136 125 174 11 21
65 88 120 148 55 61 106 120 112 133 19 36 75 65 124 65 55 1 127 20 158 42
18 12 36 16 61 12 19 -3 62 0 95 7 33 7 83 13 111 14 39 1 59 8 80 26 34 28
103 161 106 204 l3 30 85 3 c96 3 166 29 180 67 5 13 14 26 19 30 29 18 -5
127 -48 153 -31 18 -26 48 12 68 26 14 58 18 169 19 130 1 138 2 162 25 14 13
24 25 22 28 -2 2 -37 5 -78 7 -41 2 -95 12 -123 23 -27 11 -74 22 -102 26 -45
6 -57 3 -81 -14 -21 -15 -40 -20 -68 -18 l-39 3 -3 49 c-3 44 0 52 29 82 27
28 40 34 76 34 28 0 62 -9 91 -25 41 -22 59 -25 145 -25 54 0 107 -5 118 -10
22 -12 25 0 8 31 -11 21 -109 69 -139 69 -10 0 -51 16 -90 37 l-72 36 7 51 c4
28 8 74 10 103 1 46 7 57 43 97 23 25 42 49 42 53 0 5 14 17 30 28 16 11 30
25 30 30 0 6 21 28 46 49 26 22 63 64 83 95 67 104 83 120 119 127 24 5 52 24
87 60 47 47 54 60 65 118 13 71 7 119 -21 155 -11 13 -19 30 -19 37 0 7 -17
31 -37 53 -29 30 -55 44 -110 61 -83 25 -78 16 -87 170 -2 47 -16 128 -30 180
-15 52 -31 112 -36 133 -6 21 -19 50 -29 65 -51 76 -71 109 -71 119 0 7 -8 14
-18 17 -10 4 -29 28 -42 55 -26 57 -47 74 -161 131 -46 24 -98 57 -114 75 -51
54 -132 103 -189 115 -33 7 -62 20 -76 35 -18 19 -34 25 -65 25 -29 0 -47 6
-60 20 -9 10 -37 27 -61 36 -24 9 -44 21 -44 25 0 5 -15 15 -32 23 -80 34
-147 152 -132 232 10 54 59 143 102 185 55 55 82 94 82 122 0 19 8 28 31 36
22 7 29 15 25 26 -3 8 2 19 13 24 9 6 30 29 46 52 30 43 95 183 95 205 0 6 16
19 36 29 49 23 133 16 204 -17 91 -42 190 -150 190 -207 0 -11 14 -35 31 -52
28 -29 30 -35 26 -88 -3 -31 -10 -91 -16 -134 -16 -105 -4 -148 57 -206 26
-25 61 -52 77 -60 17 -9 35 -26 40 -39 6 -13 38 -39 71 -58 51 -29 75 -35 140
-39 43 -3 102 -13 132 -22 46 -15 64 -15 133 -5 97 14 106 10 194 -74 69 -66
130 -94 209 -94 60 0 86 -19 86 -64 0 -15 5 -36 11 -48 8 -14 8 -27 -1 -47 -8
-21 -7 -42 4 -90 13 -56 22 -70 68 -114 29 -27 63 -53 76 -58 31 -12 79 -11
102 1 15 8 23 3 44 -25 15 -19 33 -35 41 -35 8 0 28 -15 44 -32 29 -31 35 -33
97 -33 80 0 92 15 35 44 -45 24 -157 148 -167 186 -3 14 -15 42 -25 62 -10 21
-19 56 -19 80 0 24 -9 66 -20 95 -12 31 -20 78 -20 113 -1 78 -14 145 -31 156
-58 35 -64 -224 -8 -303 17 -24 24 -49 27 -108 4 -69 2 -80 -17 -99 -24 -24
-68 -27 -96 -7 -15 11 -19 25 -18 63 5 204 5 212 -21 268 -15 29 -26 60 -26
69 0 33 -17 50 -82 81 -38 18 -75 39 -83 45 -35 29 -57 -44 -29 -97 19 -34 19
-35 -1 -49 -11 -8 -31 -14 -45 -12 -23 3 -25 8 -26 51 -1 43 -6 54 -50 103
-27 30 -56 74 -65 97 -13 35 -19 42 -40 39 -48 -6 -65 -4 -108 12 -41 16 -45
16 -62 0 -27 -24 -24 -59 6 -78 26 -17 34 -45 13 -47 -29 -3 -44 4 -71 32 -15
16 -37 29 -47 29 -11 0 -25 10 -31 23 -7 12 -17 25 -23 29 -18 12 -75 9 -104
-6 -15 -8 -38 -16 -52 -17 -21 -3 -27 2 -36 31 -6 19 -22 41 -35 49 -13 8 -33
22 -44 32 -11 9 -36 19 -57 23 -20 4 -39 14 -42 22 -17 45 3 146 37 182 16 17
22 39 25 86 4 57 2 66 -18 83 -12 10 -28 32 -37 48 -8 17 -23 39 -33 50 -10
11 -21 31 -25 45 -4 14 -18 38 -31 53 -13 16 -24 35 -24 42 0 27 -73 100 -128
128 -40 20 -82 32 -141 39 -47 5 -98 16 -115 25 -67 35 -83 34 -126 -4 -22
-20 -40 -41 -40 -47 0 -5 -12 -22 -26 -37 -22 -23 -27 -39 -32 -101 -4 -59
-10 -82 -35 -120 -17 -27 -36 -48 -43 -48 -7 0 -20 -10 -28 -22 -9 -13 -25
-34 -36 -48 -45 -54 -80 -103 -80 -114 0 -5 -9 -19 -19 -31 -65 -68 -91 -99
-91 -109 0 -6 -11 -28 -26 -49 -20 -30 -26 -54 -31 -121 -9 -123 -2 -142 70
-218 34 -36 73 -68 85 -72 12 -4 22 -11 22 -16 0 -5 20 -18 44 -28 24 -11 46
-25 50 -31 4 -6 26 -15 49 -22 23 -6 51 -19 63 -30 11 -10 42 -23 70 -28 27
-6 67 -19 89 -31 21 -11 53 -20 70 -20 36 0 48 -7 65 -39 16 -31 20 -36 67
-89 35 -40 44 -44 112 -55 75 -13 101 -31 101 -69 0 -19 61 -88 78 -88 6 0 14
-9 17 -20 4 -11 17 -33 31 -49 17 -21 27 -49 34 -105 6 -42 21 -97 32 -123 16
-36 22 -69 22 -135 1 -85 0 -87 -31 -120 -18 -19 -33 -39 -33 -46 0 -6 -9 -16
-21 -22 -11 -6 -29 -31 -39 -56 -11 -24 -24 -44 -29 -44 -5 0 -15 -17 -22 -37
-6 -21 -21 -47 -33 -59 -12 -11 -30 -36 -41 -54 -11 -19 -26 -43 -32 -55 -18
-30 -16 -110 3 -126 23 -19 47 0 57 45 5 20 17 41 27 46 9 5 25 30 34 55 10
25 21 45 25 45 5 0 16 18 26 39 10 22 24 42 31 45 8 3 17 24 20 46 7 45 74
128 93 116 6 -4 11 -25 11 -46 0 -76 10 -80 140 -58 87 15 93 10 101 -80 4
-37 10 -83 14 -103 6 -29 3 -40 -18 -64 l-24 -29 -28 22 c-36 28 -67 28 -102
-2 -15 -13 -38 -26 -49 -30 -25 -8 -34 -32 -34 -100 0 -43 -4 -52 -40 -87 -30
-29 -48 -39 -73 -39 -29 0 -38 -6 -64 -47 -17 -27 -34 -63 -38 -80 -3 -18 -11
-33 -16 -33 -5 0 -19 -11 -31 -25 -12 -14 -27 -25 -34 -25 -7 0 -26 -11 -41
-24 -32 -28 -25 -43 29 -60 43 -14 48 -45 14 -80 -14 -14 -26 -32 -26 -41 0
-8 -11 -25 -24 -36 -14 -12 -27 -38 -31 -59 -4 -21 -15 -46 -26 -56 -11 -10
-27 -43 -36 -73 -21 -73 -49 -128 -73 -143 -12 -8 -20 -24 -20 -40 0 -35 62
-95 108 -104 18 -3 43 -15 57 -25 13 -11 41 -26 62 -33 l38 -13 0 -59 0 -59
-43 2 c-29 1 -52 10 -73 27 -17 14 -35 26 -41 26 -6 0 -40 26 -77 58 -94 81
-156 122 -208 138 -52 16 -59 14 -66 -21 -5 -27 14 -55 37 -55 7 0 21 -9 31
-20 10 -11 23 -20 29 -20 6 0 26 -10 45 -23 19 -12 46 -29 60 -38 18 -11 26
-24 26 -45 0 -28 -2 -29 -40 -27 -22 2 -51 12 -65 23 -32 26 -125 70 -149 70
-27 0 -54 -35 -48 -62 8 -32 111 -78 175 -78 26 0 52 -4 58 -8 18 -12 26 -78
14 -121 -8 -32 -17 -42 -45 -51 -29 -9 -43 -9 -78 5 -39 15 -49 15 -116 1 -40
-9 -78 -20 -85 -25 -20 -17 -133 -30 -205 -24 l-69 6 -39 -40 c-85 -88 -301
-349 -315 -379 -6 -13 -15 -24 -19 -24 -8 0 -19 -14 -89 -120 -14 -21 -42 -64
-64 -97 -54 -81 -98 -150 -132 -206 -16 -26 -41 -67 -56 -90 -15 -23 -28 -49
-28 -58 0 -9 -7 -23 -16 -30 -9 -7 -27 -36 -40 -64 -14 -27 -39 -75 -56 -105
-16 -30 -39 -72 -49 -92 -36 -70 -73 -122 -144 -203 -16 -19 -35 -40 -42 -48
-7 -8 -16 -17 -20 -18 -8 -4 -32 -32 -183 -211 -88 -104 -134 -166 -166 -223
-9 -16 -27 -43 -40 -58 -13 -16 -24 -34 -24 -41 0 -7 -11 -23 -25 -36 -14 -13
-25 -29 -25 -35 0 -7 -13 -29 -30 -50 -16 -21 -30 -43 -30 -49 -1 -6 -14 -27
-30 -46 -17 -19 -30 -38 -30 -43 0 -5 -10 -22 -23 -37 -12 -15 -31 -43 -42
-61 -11 -18 -29 -47 -40 -65 -11 -17 -29 -45 -40 -63 -11 -18 -32 -49 -47 -68
-16 -20 -28 -41 -28 -48 0 -6 -11 -22 -25 -35 -14 -13 -25 -29 -25 -35 0 -12
-29 -54 -83 -120 -13 -16 -28 -41 -32 -55 -4 -14 -18 -38 -31 -53 -13 -16 -24
-34 -24 -41 0 -7 -11 -23 -25 -36 -14 -13 -25 -29 -25 -37 0 -7 -13 -27 -30
-45 -16 -17 -30 -40 -30 -50 0 -10 -11 -29 -24 -41 -13 -12 -27 -33 -31 -47
-4 -14 -18 -38 -31 -53 -13 -16 -24 -37 -24 -46 0 -10 -13 -32 -30 -49 -16
-18 -30 -41 -30 -51 0 -11 -11 -32 -25 -47 -14 -15 -25 -33 -25 -40 0 -7 -11
-26 -25 -42 -14 -17 -25 -35 -25 -41 0 -5 -13 -26 -30 -44 -16 -19 -30 -39
-30 -44 0 -6 -13 -24 -30 -41 -16 -18 -30 -40 -30 -50 0 -10 -11 -33 -25 -52
-14 -18 -28 -50 -31 -69 -4 -20 -15 -45 -26 -57 -10 -11 -23 -46 -28 -77 -5
-30 -15 -68 -24 -84 -8 -16 -20 -58 -28 -93 -11 -53 -20 -72 -55 -108 -24 -24
-43 -48 -43 -54 0 -5 -30 -40 -67 -77 -112 -112 -113 -114 -113 -227 l0 -97
54 -51 c51 -49 93 -82 171 -136 20 -14 51 -37 68 -51 18 -15 43 -30 57 -34 14
-4 38 -18 53 -31 41 -35 119 -34 151 1 16 17 43 29 82 37 64 13 108 39 160 94
31 33 34 40 34 99 0 57 3 68 30 98 21 25 41 36 69 40 27 3 51 17 80 43 23 22
41 44 41 50 0 6 11 21 25 34 14 13 25 29 25 35 0 7 14 29 30 50 16 21 30 43
30 50 0 6 9 20 20 30 12 10 29 38 40 62 10 24 23 43 29 43 5 0 15 17 22 38 6
20 20 45 29 54 10 9 23 33 30 53 6 19 16 35 21 35 6 0 17 17 26 37 21 52 55
89 158 176 50 41 124 112 165 158 41 45 85 93 98 105 12 11 22 26 22 31 0 6
12 23 28 40 25 28 44 56 84 126 9 16 25 39 36 51 11 11 26 32 33 47 26 47 54
90 106 161 29 39 53 76 53 83 0 6 11 26 25 45 14 18 28 50 31 69 4 20 15 53
25 73 11 21 19 49 19 63 0 18 14 39 45 68 150 140 180 182 197 279 11 61 48
138 68 138 11 0 74 63 145 146 117 136 184 183 285 200 41 7 94 19 117 28 32
12 106 17 335 22 l293 6 44 -41 c40 -39 44 -46 51 -109 4 -37 15 -82 23 -99
10 -18 21 -77 26 -141 6 -62 18 -130 29 -158 11 -27 23 -91 27 -144 4 -53 17
-126 30 -165 14 -42 26 -107 29 -163 3 -54 12 -105 21 -123 9 -17 22 -88 30
-158 7 -70 20 -142 28 -158 9 -16 21 -75 26 -131 6 -56 19 -127 30 -159 11
-32 23 -92 26 -133 4 -41 16 -100 26 -130 11 -30 24 -98 30 -150 6 -52 19
-115 30 -140 10 -25 23 -92 29 -149 7 -73 16 -111 29 -130 46 -64 38 -115 -18
-132 -31 -9 -43 -8 -67 4 -16 8 -50 18 -76 22 -66 10 -94 39 -103 106 -4 30
-14 62 -23 72 -10 11 -18 43 -20 82 -4 53 0 72 22 119 34 73 34 117 -2 157
-26 29 -34 31 -114 38 -47 3 -95 4 -107 1 -12 -3 -35 -25 -51 -49 -25 -37 -30
-54 -30 -105 0 -34 -8 -92 -16 -131 -9 -38 -20 -96 -24 -128 -13 -93 -37 -108
-114 -71 -38 18 -196 38 -238 30 -50 -10 -95 -70 -104 -137 -3 -30 -15 -69
-26 -86 -11 -18 -24 -62 -29 -98 -5 -36 -18 -83 -28 -103 -12 -24 -22 -70 -26
-122 -3 -47 -11 -112 -16 -146 -13 -73 5 -128 46 -144 22 -9 25 -15 25 -63 0
-64 -16 -157 -36 -212 -8 -22 -18 -106 -23 -186 -5 -81 -13 -155 -19 -165 -17
-34 -31 -136 -38 -269 -3 -71 -15 -170 -25 -220 -24 -111 -43 -483 -33 -643 7
-130 2 -142 -58 -142 -33 0 -42 5 -56 30 -9 16 -20 30 -24 30 -3 0 -20 11 -37
25 -19 17 -52 30 -93 37 -35 6 -80 19 -102 30 -21 11 -75 23 -120 28 -46 5
-120 14 -165 20 -70 11 -99 10 -196 -5 -100 -15 -118 -21 -144 -46 -17 -16
-35 -29 -40 -29 -5 0 -14 -14 -20 -30 -6 -17 -19 -43 -31 -57 -49 -63 -5 -152
110 -222 53 -32 142 -69 180 -75 24 -4 64 -16 89 -27 25 -11 87 -24 140 -29
53 -6 116 -17 141 -25 59 -19 173 -35 202 -28 13 4 38 19 56 35 46 39 91 38
138 -5 l36 -32 4 -120 c5 -135 28 -202 84 -255 28 -26 31 -34 26 -72 -3 -24
-8 -95 -11 -158 -4 -63 -11 -133 -16 -154 -11 -40 -10 -45 29 -125 16 -31 64
-66 140 -101 13 -5 62 -10 109 -10 75 0 92 3 132 26 76 44 109 87 116 153 3
31 10 70 16 86 17 44 27 129 28 221 1 94 11 112 66 116 37 3 40 5 52 47 7 24
19 51 27 60 7 9 19 40 25 69 13 61 31 100 59 125 18 17 22 17 80 1 49 -14 65
-24 84 -52 15 -22 37 -40 63 -48 71 -25 242 -36 491 -32 230 3 244 4 272 25
16 11 44 25 63 31 19 5 52 26 74 47 l40 38 0 84 0 84 -40 34 c-26 23 -51 34
-71 35 -17 0 -46 5 -63 11 -30 11 -32 14 -27 43 4 17 13 95 20 173 11 114 18
147 35 170 12 15 25 54 30 85 6 31 18 73 29 95 11 21 23 64 26 95 4 31 16 67
26 80 10 13 23 42 29 64 6 23 20 49 30 58 11 10 31 53 46 97 l26 79 2 803 c2
721 0 808 -15 857 -9 30 -19 82 -23 115 -3 33 -13 86 -22 117 -17 62 -16 72
17 163 20 56 21 65 9 130 -9 49 -20 77 -37 94 -13 13 -31 44 -39 68 -13 39
-13 51 2 119 9 42 28 92 41 111 41 61 36 143 -11 193 -50 54 -60 96 -35 155
11 26 29 58 40 72 10 13 24 49 30 80 7 30 18 69 25 87 8 18 21 110 30 204 8
94 19 181 24 194 10 29 18 83 31 223 6 61 17 133 25 160 9 28 20 111 26 185 6
79 18 160 29 195 12 36 24 114 29 195 6 74 18 158 27 185 13 39 18 113 24 337
7 284 8 288 34 337 14 28 26 61 26 73 0 13 11 43 24 68 13 25 27 56 31 69 9
30 70 126 96 152 10 10 19 24 19 30 0 6 11 24 25 41 14 16 25 35 25 41 0 7 14
32 30 57 16 25 30 53 30 62 0 9 11 29 24 45 14 16 28 43 32 59 3 16 17 45 29
64 13 19 26 51 30 70 4 19 15 46 25 60 10 14 21 40 25 59 4 18 18 49 31 68 13
20 24 41 24 48 0 7 14 29 30 50 17 21 30 43 30 50 0 7 7 19 16 26 9 8 25 32
34 54 9 22 25 47 34 54 10 8 23 29 31 48 8 18 18 33 23 33 5 0 15 15 23 33 7
17 21 43 32 57 29 39 86 133 93 152 3 10 10 18 15 18 5 0 18 20 30 45 12 25
25 45 29 45 4 0 15 17 23 38 8 21 23 44 32 52 9 8 24 31 32 52 8 21 19 38 25
38 5 0 16 17 25 37 8 21 26 51 39 66 13 16 24 34 24 41 0 7 11 23 25 36 14 13
25 32 25 41 0 10 13 32 29 48 16 17 32 39 36 50 3 11 18 22 35 26 40 9 256
-13 305 -31 22 -8 82 -20 133 -27 70 -11 98 -19 116 -36 49 -46 145 -42 160 7
4 10 17 29 29 41 l24 21 74 -24 c41 -14 92 -34 114 -45 21 -12 52 -21 68 -21
16 0 61 -11 100 -25 40 -13 108 -28 152 -33 45 -5 95 -17 112 -26 18 -9 76
-20 130 -26 130 -13 170 -20 207 -35 17 -7 85 -16 151 -20 66 -4 148 -13 182
-22 56 -13 71 -13 130 0 38 8 109 18 158 22 50 4 115 15 145 25 30 10 103 23
161 28 60 6 120 17 138 26 17 9 65 21 107 26 41 5 96 19 121 30 25 11 72 24
105 30 32 5 74 18 91 29 18 11 60 23 95 27 38 4 72 14 87 26 15 11 53 24 92
29 37 5 75 17 85 26 10 8 56 22 103 29 47 8 96 21 109 29 13 9 66 20 117 26
51 6 109 19 128 28 53 27 117 32 196 17 64 -13 81 -13 190 6 103 17 129 18
182 8 69 -13 111 -8 147 21 13 10 48 24 77 29 28 6 66 19 84 30 18 11 41 20
51 20 42 0 102 41 134 92 l32 52 -26 52 c-14 28 -26 59 -26 68 0 9 -12 29 -27
44 -25 24 -29 37 -34 112 -3 47 -10 95 -14 108 -6 19 0 30 34 61 22 21 41 47
41 58 0 29 -64 83 -98 83 -38 0 -168 -18 -302 -42 -113 -20 -170 -40 -170 -58
0 -16 -72 -31 -87 -18 -23 19 -24 15 74 223 18 40 23 67 23 130 0 77 -1 81
-35 118 -18 20 -41 37 -49 37 -26 0 -72 -48 -85 -89 -6 -22 -16 -43 -21 -46
-6 -4 -16 -21 -24 -39 -16 -38 -31 -58 -99 -130 -27 -28 -56 -64 -64 -81 -9
-16 -26 -43 -39 -58 -13 -16 -24 -38 -24 -50 0 -12 -9 -36 -20 -54 -10 -18
-22 -56 -26 -84 -8 -57 -29 -86 -71 -94 -16 -3 -50 -17 -78 -30 -27 -13 -83
-29 -123 -35 -41 -6 -88 -18 -105 -26 -21 -11 -69 -18 -156 -21 -100 -4 -142
-10 -201 -30 -41 -15 -111 -30 -155 -34 -44 -5 -102 -13 -130 -19 -96 -21
-212 -28 -481 -29 l-270 -1 -34 -25 c-19 -14 -46 -25 -61 -25 -15 0 -50 -7
-78 -16 -46 -16 -57 -16 -128 -1 -75 15 -147 50 -217 105 -16 12 -34 22 -41
22 -7 0 -18 7 -25 15 -27 33 -174 93 -245 101 -38 4 -89 15 -113 25 -24 11
-51 19 -59 19 -9 0 -39 11 -67 24 -28 13 -73 27 -99 31 -43 6 -50 11 -62 39
-18 43 -31 52 -84 61 -38 6 -56 20 -158 121 -63 63 -118 114 -122 114 -5 0
-25 14 -46 30 -21 17 -45 30 -54 30 -9 0 -37 11 -63 25 -26 14 -54 25 -62 25
-9 0 -23 12 -32 28 -29 45 -81 90 -116 97 -33 8 -44 0 -74 -51 -13 -23 -28
-16 -116 49 -31 23 -64 47 -73 52 -10 6 -19 30 -23 65 l-7 55 -40 -3 c-37 -2
-43 1 -80 47 -22 27 -50 55 -62 61 -24 14 -37 64 -28 107 13 57 71 157 122
212 29 31 61 65 72 76 10 11 24 38 31 60 7 22 19 47 27 56 7 9 18 42 23 74 5
32 12 60 15 63 3 3 35 6 72 7 53 1 69 5 77 20 6 10 23 30 38 46 14 15 29 42
33 59 4 17 13 34 21 37 18 7 34 66 34 128 0 30 8 64 19 85 10 19 21 49 25 66
4 17 18 42 32 54 13 13 24 31 24 40 0 10 11 34 25 55 14 20 30 59 35 85 5 26
18 62 29 81 26 44 41 207 32 345 -6 90 -10 105 -34 133 -15 18 -27 38 -27 46
0 15 -83 105 -97 105 -6 0 -27 13 -47 29 -22 18 -54 31 -83 35 -27 4 -73 15
-103 26 -33 11 -102 21 -175 25 -82 5 -145 14 -198 31 -89 27 -228 37 -348 25z
m4008 -3320 c18 -35 20 -47 11 -74 -17 -49 -27 -57 -77 -57 -34 0 -57 8 -90
30 -24 17 -52 30 -61 30 -10 0 -23 7 -30 15 -20 24 4 42 63 50 29 4 63 14 77
23 28 19 60 31 75 28 6 -1 20 -21 32 -45z m-944 -82 c5 -9 7 -28 3 -42 -8 -34
-35 -35 -102 -6 -46 19 -49 19 -61 3 -7 -10 -13 -25 -13 -35 0 -9 -13 -31 -29
-48 -25 -27 -36 -31 -80 -31 -43 0 -56 4 -76 26 -37 40 -42 65 -15 84 12 8 34
27 49 43 l26 28 144 -3 c119 -3 146 -6 154 -19z"/>
<path d="M3 15485 c0 -27 2 -38 4 -22 2 15 2 37 0 50 -2 12 -4 0 -4 -28z"/>
<path d="M4233 12239 c-45 -67 -53 -83 -53 -105 0 -11 -11 -31 -25 -44 -14
-13 -25 -34 -25 -48 0 -14 -12 -35 -30 -50 -29 -26 -37 -53 -24 -86 3 -9 13
-16 20 -16 23 0 91 72 98 104 4 16 18 43 32 59 13 16 24 35 24 42 0 8 13 29
29 47 36 42 48 100 26 122 -26 25 -43 19 -72 -25z"/>
<path d="M4203 11880 c-10 -11 -30 -32 -45 -47 -16 -14 -28 -32 -28 -40 0 -7
-11 -23 -25 -35 -14 -12 -27 -36 -31 -54 -3 -18 -14 -40 -25 -49 -10 -10 -23
-41 -29 -70 -6 -29 -22 -67 -35 -86 -37 -50 -28 -119 15 -119 21 0 61 71 81
142 6 23 19 53 29 66 10 12 22 37 26 55 3 18 17 45 30 60 13 16 24 36 24 46 0
9 11 32 25 51 25 34 35 100 15 100 -5 0 -18 -9 -27 -20z"/>
<path d="M4270 10659 c-30 -12 -88 -73 -101 -106 -25 -67 56 -187 144 -212 23
-7 63 -19 88 -26 61 -20 91 -19 120 3 13 10 37 24 52 32 40 20 67 69 67 123 0
42 -5 51 -44 91 -33 33 -57 47 -98 56 -29 7 -66 19 -83 25 -45 18 -117 25
-145 14z m38 -74 c40 -26 106 -44 161 -45 19 0 54 -11 78 -25 35 -21 43 -31
43 -55 0 -25 -6 -32 -37 -46 -21 -9 -52 -16 -69 -15 -49 1 -136 27 -195 58
-48 25 -54 32 -57 64 -3 40 12 89 28 89 6 0 27 -11 48 -25z"/>
<path d="M6051 9438 c-22 -8 -23 -12 -17 -68 4 -33 7 -217 7 -409 l-1 -349 35
-21 c43 -25 44 -36 5 -56 -35 -18 -37 -27 -44 -166 -7 -157 0 -163 169 -138
64 10 87 9 138 -4 73 -19 213 -28 244 -16 12 4 24 17 28 28 3 11 19 22 36 26
40 9 35 36 -9 47 -30 8 -32 11 -32 53 0 24 -6 47 -12 52 -7 4 -88 6 -179 4
-130 -2 -169 0 -175 11 -5 7 -7 120 -7 250 l2 238 27 23 26 23 3 210 c2 115 4
218 5 228 0 10 -4 24 -9 29 -13 13 -209 17 -240 5z"/>
<path d="M6786 9433 c-28 -15 -32 -36 -15 -80 6 -16 12 -110 14 -215 3 -184 3
-187 -21 -219 -30 -41 -30 -70 -1 -95 22 -20 22 -22 21 -254 -1 -129 -5 -260
-9 -291 -4 -32 -3 -59 2 -62 5 -3 51 -7 102 -9 107 -3 115 2 105 71 -3 24 -7
151 -9 282 -3 232 -2 240 19 266 20 26 21 40 24 288 2 143 4 272 4 288 0 15
-2 30 -5 34 -13 13 -205 9 -231 -4z m118 -546 c15 -43 -2 -62 -55 -62 l-44 0
0 40 c0 33 4 40 25 46 43 12 64 6 74 -24z"/>
<path d="M7151 9441 c-12 -7 -14 -54 -12 -261 1 -138 4 -257 7 -264 3 -7 18
-20 34 -30 35 -20 38 -45 10 -71 -18 -16 -20 -26 -14 -77 5 -47 3 -67 -15
-108 -18 -41 -21 -62 -16 -108 4 -31 2 -84 -4 -117 -9 -54 -8 -63 11 -88 l20
-29 -21 -19 c-43 -41 -15 -76 52 -64 23 4 62 9 87 10 25 2 51 3 57 4 7 1 19
14 28 31 12 23 13 39 6 72 -6 24 -12 82 -15 131 -5 85 -4 87 17 87 32 0 67 11
67 21 0 4 -16 14 -36 21 -29 10 -41 23 -56 57 -24 56 -13 71 52 71 34 0 52 5
65 20 23 25 33 25 123 -2 92 -27 100 -21 83 57 -12 51 -11 57 8 81 26 33 27
56 1 79 -16 14 -25 16 -47 7 -66 -25 -261 -32 -274 -10 -5 7 -7 80 -6 163 l2
150 145 -4 c92 -2 157 -8 178 -17 30 -12 35 -11 52 6 17 17 20 34 20 98 0 109
-8 118 -91 103 -66 -12 -446 -10 -484 3 -11 3 -26 2 -34 -3z m178 -867 l24
-17 -24 -13 c-32 -18 -66 -17 -73 1 -16 42 29 59 73 29z"/>
<path d="M8430 9438 c-25 -5 -140 -7 -262 -4 -185 4 -220 2 -233 -10 -18 -18
-18 -24 -4 -61 10 -26 15 -130 18 -385 l1 -108 69 0 c39 0 72 -4 75 -8 19 -31
-43 -82 -99 -82 -13 0 -31 -7 -39 -16 -21 -20 -21 -88 0 -105 14 -12 16 -40
13 -227 -3 -182 -2 -215 11 -222 22 -12 163 4 168 19 8 25 51 30 169 21 65 -6
135 -12 155 -16 33 -5 38 -3 52 24 9 17 16 44 16 61 0 16 5 42 10 57 14 37 5
44 -78 56 -55 9 -87 8 -142 -2 l-70 -13 -28 26 c-15 15 -42 32 -60 38 -54 19
-39 59 23 59 14 0 29 8 34 18 10 19 3 137 -10 163 -5 10 -2 24 8 39 17 24 11
24 213 4 87 -8 91 -4 82 110 -5 67 -11 91 -24 99 -12 8 -58 7 -159 -2 -104 -9
-145 -9 -153 -1 -14 14 -17 247 -4 273 9 17 19 18 121 12 62 -3 133 -11 159
-17 44 -11 50 -10 71 10 21 20 24 30 22 99 -3 104 -17 114 -125 91z"/>
<path d="M9142 9436 c-3 -6 -5 -131 -3 -277 l3 -267 -24 -4 c-33 -4 -35 -34
-3 -42 l27 -7 -3 -310 c-3 -266 -1 -312 11 -319 8 -4 58 -5 110 -1 l95 6 -1
45 c0 25 -6 97 -13 160 -13 112 -12 115 8 128 18 12 19 16 6 29 -18 17 -19
206 -1 238 7 13 11 108 11 265 0 135 4 265 8 290 12 70 5 74 -118 75 -62 1
-109 -3 -113 -9z m113 -566 c0 -52 -15 -60 -77 -39 -28 9 -38 18 -38 34 0 25
52 55 90 52 23 -2 25 -6 25 -47z"/>
<path d="M11129 9428 c-30 -18 -34 -30 -43 -117 -3 -29 -14 -71 -25 -92 -11
-21 -25 -67 -31 -101 -5 -34 -18 -74 -28 -88 -10 -14 -24 -56 -29 -95 -6 -38
-22 -96 -36 -127 -24 -54 -28 -58 -60 -58 -19 0 -49 10 -69 23 -68 47 -119 41
-149 -15 -10 -18 -8 -24 11 -40 18 -15 33 -17 94 -11 61 5 74 3 79 -10 9 -23
11 -242 3 -256 -4 -6 -25 -20 -46 -31 -21 -11 -41 -28 -44 -37 -8 -27 -10
-148 -3 -160 7 -10 155 -8 189 3 25 7 23 47 -4 95 l-23 40 24 20 c13 10 35 19
50 20 47 1 66 15 81 60 l16 44 130 3 c157 3 164 -1 146 -76 -7 -26 -15 -77
-18 -113 -9 -91 -4 -95 127 -94 l104 0 -1 37 c-2 47 -15 64 -59 72 -26 5 -35
12 -35 27 0 11 6 21 13 23 6 2 26 7 42 12 l30 9 2 172 c2 169 1 171 -22 191
-14 12 -28 34 -31 49 -4 15 -13 37 -20 48 -7 11 -16 47 -19 80 -4 33 -18 83
-30 110 -13 28 -26 73 -30 100 -4 28 -16 65 -27 82 -12 21 -22 61 -27 108 -4
41 -13 81 -19 87 -8 8 -50 15 -99 18 -70 4 -91 2 -114 -12z m109 -210 c15 -15
16 -45 2 -53 -17 -10 -50 5 -50 24 0 16 18 41 30 41 3 0 11 -5 18 -12z m12
-113 c6 -8 16 -64 21 -125 6 -67 19 -138 34 -181 21 -62 22 -76 12 -108 -13
-39 -53 -64 -119 -75 -45 -7 -62 -1 -83 30 -14 21 -14 26 0 47 8 12 19 52 24
87 5 36 14 78 20 93 6 16 11 48 11 71 0 57 17 145 31 163 15 17 34 17 49 -2z
m207 -432 c2 -5 -5 -21 -16 -34 l-20 -24 -1 31 c0 17 3 34 7 38 9 8 26 3 30
-11z"/>
<path d="M11670 9438 c-25 -9 -32 -36 -20 -78 6 -19 10 -123 10 -230 1 -107 6
-242 12 -300 7 -58 11 -130 10 -161 -1 -50 2 -58 24 -69 27 -15 33 -57 10 -66
-22 -8 -29 -31 -37 -119 -4 -44 -11 -95 -14 -113 -6 -27 -3 -38 16 -58 21 -22
29 -25 64 -19 77 12 199 12 231 -1 16 -7 74 -14 128 -16 87 -2 100 0 112 17 8
10 14 24 14 31 0 7 12 17 28 22 l27 9 -25 8 c-33 10 -40 22 -40 72 0 30 -5 45
-18 52 -10 5 -69 6 -147 1 -72 -4 -134 -6 -140 -5 -5 2 -22 6 -36 9 l-26 6 3
246 2 246 26 27 c26 27 26 27 23 181 -1 85 1 184 6 220 11 93 8 95 -118 95
-58 0 -114 -3 -125 -7z"/>
<path d="M12366 9442 c-25 -5 -37 -44 -25 -84 10 -36 14 -694 3 -721 -4 -12 4
-23 30 -38 43 -25 45 -36 9 -65 -27 -21 -28 -26 -29 -111 0 -48 -3 -101 -7
-118 -6 -24 -3 -36 15 -58 l23 -28 104 12 c87 9 112 9 160 -4 31 -9 90 -17
131 -17 126 -3 129 -3 136 25 4 17 15 27 33 31 65 14 69 28 11 44 -39 10 -40
12 -40 55 0 24 -6 47 -12 52 -7 4 -94 8 -193 8 l-180 0 -3 247 -2 246 29 21
28 21 1 205 c1 114 4 214 7 224 3 9 -1 26 -9 36 -12 17 -27 20 -108 20 -52 0
-102 -2 -112 -3z"/>
<path d="M9758 9429 c-78 -5 -91 -9 -145 -44 -32 -21 -62 -46 -68 -54 -22 -35
-46 -120 -52 -187 -4 -57 -2 -78 14 -115 11 -24 23 -56 26 -70 4 -14 18 -31
32 -37 21 -10 25 -19 25 -51 0 -37 2 -41 35 -50 22 -6 48 -6 67 0 49 14 73 -7
73 -62 l0 -44 94 -3 c52 -1 101 -8 108 -14 20 -17 16 -82 -8 -112 -20 -25 -20
-28 -5 -67 21 -52 20 -86 -2 -98 -48 -25 -113 -41 -174 -41 -56 0 -69 3 -78
19 -12 24 -13 86 -1 128 11 38 5 69 -15 77 -8 3 -48 3 -88 0 -69 -6 -73 -8
-84 -36 -6 -16 -20 -32 -31 -35 -25 -6 -38 -71 -21 -104 11 -19 18 -21 60 -16
29 4 52 1 59 -6 13 -13 14 -67 1 -122 -19 -79 -32 -75 275 -75 l274 0 7 36 c3
19 4 52 0 72 -5 32 -2 40 24 64 17 15 30 35 31 45 0 10 1 96 2 192 2 131 5
175 15 179 21 7 42 33 42 53 0 28 -46 26 -61 -3 -16 -31 -28 -38 -67 -38 -47
0 -67 14 -98 65 -14 25 -27 45 -29 45 -26 0 -113 24 -124 34 -9 8 -34 19 -56
25 -29 7 -52 24 -80 58 -34 40 -40 55 -40 93 0 40 5 49 45 87 42 39 49 42 100
42 48 0 60 -4 91 -32 27 -24 38 -43 44 -75 8 -51 25 -60 100 -58 111 4 135 32
92 108 -14 24 -28 60 -31 80 -7 40 -76 110 -131 133 -38 16 -136 22 -247 14z
m180 -580 c31 -11 66 -51 55 -63 -21 -21 -123 19 -123 48 0 28 19 32 68 15z"/>
<path d="M7766 8844 c-9 -25 4 -64 23 -64 9 0 31 9 49 20 28 17 31 23 22 40
-14 26 -85 29 -94 4z"/>
<path d="M9410 8570 c-13 -9 -13 -11 0 -20 18 -12 60 -13 60 -2 0 12 -22 32
-34 32 -6 0 -18 -5 -26 -10z"/>
<path d="M10646 8035 c-9 -7 -10 -124 -6 -435 3 -238 1 -430 -4 -437 -5 -9
-35 -13 -85 -13 -111 0 -121 -4 -121 -51 0 -22 4 -39 10 -39 5 0 21 -12 36
-27 20 -22 27 -25 32 -14 20 55 107 88 143 55 35 -32 39 -48 24 -98 -10 -34
-15 -118 -16 -314 -1 -147 -3 -292 -3 -322 l-1 -55 42 -3 c63 -5 66 -13 54
-147 -10 -117 -9 -141 12 -147 21 -6 895 7 902 13 3 4 -3 46 -14 95 -16 77
-17 93 -6 122 12 26 19 32 45 32 17 0 43 -6 58 -14 15 -7 41 -17 58 -20 57
-13 59 -4 58 245 l-1 224 -67 -3 c-79 -4 -116 13 -116 53 0 55 57 78 127 53
61 -22 60 -33 51 472 -4 250 -11 496 -14 546 -4 66 -1 108 10 150 23 85 22 85
-199 82 l-180 -3 1 -55 c1 -74 5 -1252 5 -1267 -1 -9 -19 -13 -56 -13 -38 0
-57 -4 -61 -14 -3 -8 -1 -82 5 -165 7 -102 8 -159 1 -177 -10 -26 -12 -27 -78
-21 -37 3 -95 16 -130 28 -57 19 -66 26 -99 77 l-36 56 -5 199 -5 199 -31 -6
c-137 -26 -172 -17 -182 44 -11 70 31 87 162 66 l52 -8 4 528 c2 291 3 530 2
532 -5 9 -369 6 -378 -3z m1090 -135 c13 -13 7 -920 -6 -970 -10 -38 -72 -95
-94 -87 -8 3 -17 23 -21 44 -11 59 -5 985 6 1000 9 10 29 15 90 21 8 1 19 -2
25 -8z m-859 -31 c9 -19 13 -125 15 -385 l3 -360 -35 -32 c-43 -38 -50 -39
-81 -6 -23 24 -24 32 -26 170 -1 82 2 146 8 149 5 4 9 99 9 229 0 212 1 223
21 245 28 30 70 25 86 -10z m-13 -1102 c18 -24 26 -45 25 -73 -1 -62 27 -193
55 -261 18 -42 46 -82 89 -126 62 -63 64 -64 130 -70 36 -3 77 -13 89 -21 21
-14 28 -13 78 10 101 48 170 134 169 211 -2 112 2 131 31 168 17 21 30 44 30
51 0 7 9 18 21 24 27 15 60 -6 102 -66 42 -60 55 -98 56 -164 1 -51 -2 -58
-33 -88 -19 -18 -50 -39 -68 -46 -24 -10 -41 -30 -62 -70 -39 -75 -72 -104
-131 -115 -28 -5 -155 -7 -284 -5 l-235 4 -28 27 c-19 18 -28 37 -28 59 0 18
-6 39 -14 46 -17 18 -67 139 -60 149 2 4 -1 61 -7 126 -10 101 -9 126 4 164 8
24 13 57 10 72 -8 40 29 36 61 -6z"/>
<path d="M6660 8030 c-6 -4 -16 -41 -20 -82 -5 -41 -18 -92 -28 -114 -11 -21
-23 -61 -27 -89 -4 -27 -15 -65 -26 -83 -11 -19 -23 -61 -28 -95 -5 -34 -18
-78 -29 -97 -11 -19 -23 -57 -27 -85 -4 -27 -17 -70 -30 -95 -12 -25 -26 -72
-30 -104 -4 -32 -16 -76 -26 -96 -13 -25 -22 -68 -26 -124 -3 -48 -9 -89 -13
-91 -4 -2 -25 -7 -46 -11 -35 -5 -44 -2 -74 26 -46 43 -74 50 -202 50 -94 0
-109 -2 -117 -18 -14 -26 -3 -60 22 -68 11 -3 75 -5 141 -3 l121 4 6 -240 c4
-132 10 -250 14 -261 9 -29 -20 -84 -45 -84 -24 0 -34 17 -32 52 2 22 -2 28
-18 28 -11 0 -23 -8 -26 -17 -3 -10 -15 -36 -26 -59 -18 -34 -19 -47 -10 -87
10 -48 5 -84 -19 -144 -10 -24 -10 -36 -2 -44 9 -9 123 -13 315 -9 27 0 30 33
14 147 -24 164 -7 199 82 170 67 -22 99 -22 112 2 16 31 12 76 -9 95 -26 23
-32 51 -16 73 10 14 24 17 59 15 93 -7 362 -7 388 1 54 15 56 2 50 -255 -6
-267 -7 -264 68 -247 43 10 189 7 327 -7 53 -5 64 -4 69 10 9 23 -11 43 -53
51 l-36 6 7 45 c3 24 1 55 -4 69 -9 25 -11 25 -81 19 -63 -6 -74 -5 -85 11
-18 24 -18 59 0 74 10 9 33 10 80 3 71 -9 77 -8 95 26 9 18 20 22 57 22 41 0
45 2 42 23 -3 19 -8 22 -46 20 -34 -1 -45 2 -57 21 -14 21 -12 56 4 56 3 0 13
5 21 10 13 8 12 11 -4 23 -10 7 -22 33 -26 58 -8 37 -6 49 11 72 16 22 18 31
9 42 -17 21 -8 59 15 63 37 7 40 21 10 52 l-29 30 24 25 24 26 -29 25 c-17 13
-46 35 -65 48 -57 38 -67 56 -78 137 -6 47 -18 88 -30 105 -12 17 -23 54 -26
89 -4 38 -14 67 -26 80 -13 13 -23 46 -30 94 -6 44 -18 83 -29 97 -12 16 -22
50 -26 90 -5 46 -13 71 -27 84 -14 13 -22 40 -29 92 -5 41 -18 91 -29 113 -11
22 -20 58 -20 81 0 23 -6 46 -12 52 -15 11 -339 14 -358 2z m254 -152 c8 -13
22 -50 32 -83 9 -33 25 -72 35 -87 11 -14 19 -41 19 -60 0 -18 14 -76 30 -128
17 -52 30 -100 30 -107 0 -13 23 -69 46 -115 8 -14 16 -47 18 -72 3 -26 13
-61 24 -79 11 -18 22 -59 26 -91 4 -33 12 -64 20 -70 7 -6 21 -33 30 -59 10
-26 30 -62 44 -78 28 -34 27 -17 23 -325 l-1 -132 -61 -61 c-33 -34 -65 -59
-70 -55 -5 3 -7 21 -3 39 12 63 -43 193 -104 245 -41 34 -43 39 -32 61 7 13
20 33 30 44 26 31 38 73 44 162 5 68 3 90 -15 139 -20 53 -39 124 -58 219 -4
22 -18 69 -29 105 -12 36 -24 78 -27 94 -7 33 -60 90 -75 81 -16 -10 -12 -175
5 -233 9 -28 20 -94 25 -147 7 -78 14 -104 34 -134 22 -32 25 -47 27 -144 3
-128 -7 -148 -63 -131 -21 7 -75 7 -148 2 -103 -8 -116 -7 -127 8 -19 27 -16
49 13 83 18 22 28 50 35 95 5 36 17 82 28 103 13 26 22 69 26 138 4 55 13 118
21 140 18 51 34 217 22 230 -13 14 -98 -81 -98 -111 0 -14 -7 -41 -16 -62 -26
-61 -67 -222 -74 -292 -4 -36 -17 -96 -29 -135 -28 -92 -21 -192 17 -237 29
-34 22 -59 -19 -68 -36 -7 -95 -57 -109 -91 -12 -29 -72 -69 -103 -69 -15 0
-27 59 -27 132 0 22 -5 48 -11 59 -7 15 -6 31 5 62 8 23 17 54 20 69 3 14 24
49 46 77 41 52 110 206 110 245 0 12 7 32 16 45 10 13 25 54 35 91 10 38 24
81 32 97 8 15 17 59 21 98 4 38 15 83 25 100 10 16 24 55 31 85 7 30 16 64 21
75 16 35 39 119 39 141 0 11 14 39 30 61 31 42 37 44 127 51 14 1 28 -7 37
-20z"/>
<path d="M7592 8028 c-7 -9 -7 -28 -1 -58 5 -25 8 -232 8 -460 l-1 -414 28
-23 c16 -13 41 -34 56 -48 25 -23 31 -24 108 -18 59 4 83 10 88 21 6 17 -36
56 -84 77 -52 23 -57 37 -60 158 -6 252 -2 573 7 589 5 10 28 27 51 39 45 23
120 26 388 15 180 -7 225 -13 240 -31 7 -8 25 -15 39 -15 36 0 124 -76 116
-100 -3 -9 3 -28 14 -41 15 -19 19 -44 21 -124 5 -192 1 -225 -31 -281 -16
-28 -29 -58 -29 -67 0 -8 -11 -29 -24 -44 -32 -38 -37 -111 -12 -170 10 -24
21 -43 25 -43 13 0 33 -52 24 -61 -15 -15 -80 10 -135 51 -32 25 -59 38 -69
35 -11 -4 -29 6 -48 24 l-31 31 77 74 78 74 14 79 c8 43 16 123 18 178 4 92 2
102 -16 119 -13 11 -21 32 -21 50 -1 42 -22 67 -104 121 -74 48 -88 51 -246
47 -73 -2 -120 -26 -165 -86 -23 -30 -26 -45 -30 -138 -5 -117 -6 -137 -4
-267 1 -124 25 -176 104 -227 30 -19 55 -39 55 -44 0 -5 -12 -12 -27 -16 -91
-19 -107 -28 -118 -64 -17 -57 -21 -60 -95 -60 -78 0 -114 11 -139 41 -9 12
-36 24 -61 29 -77 14 -89 -4 -37 -56 17 -19 42 -44 54 -56 13 -13 35 -33 49
-46 25 -22 26 -26 20 -100 -20 -272 -20 -271 5 -281 14 -5 38 -4 58 1 45 13
107 -5 116 -32 9 -29 -25 -84 -55 -88 -13 -2 -42 2 -63 9 -38 13 -40 12 -64
-15 -15 -18 -22 -35 -18 -45 15 -37 17 -96 4 -148 -12 -54 -12 -56 10 -74 13
-11 39 -19 61 -19 24 0 43 -7 55 -20 17 -19 31 -20 255 -20 l236 0 23 26 23
27 197 -7 c108 -3 211 -7 230 -9 44 -3 66 26 48 63 -11 22 -19 25 -69 25 -59
0 -91 18 -101 55 -8 33 17 43 87 36 47 -5 67 -3 72 6 13 21 4 149 -13 174 -8
13 -12 32 -8 43 3 12 -1 31 -11 46 -14 21 -16 42 -12 114 4 60 1 98 -8 119
l-13 31 -116 0 c-63 0 -141 5 -172 11 -45 10 -57 9 -64 -2 -5 -7 -8 -79 -6
-161 3 -137 5 -149 26 -168 34 -32 21 -43 -52 -49 -54 -4 -71 -10 -94 -32 -27
-26 -33 -27 -141 -29 -62 -1 -116 1 -120 5 -4 4 -8 121 -9 259 -1 139 -3 271
-4 294 -2 23 0 45 5 50 4 4 89 11 189 14 207 7 217 4 217 -61 l0 -38 171 2
171 1 21 -26 c34 -41 77 -59 119 -50 20 5 41 11 47 15 19 12 12 36 -14 48 -14
6 -35 30 -45 52 -33 67 -64 105 -90 112 -14 4 -43 17 -66 30 -22 13 -50 24
-61 24 -33 0 -73 38 -73 69 0 24 9 34 57 62 39 23 60 44 67 64 6 17 20 43 31
60 18 27 20 44 18 227 -1 178 -3 201 -21 230 -11 18 -23 47 -26 63 -7 30 -68
101 -124 142 -16 12 -49 27 -73 32 -24 6 -58 17 -76 26 -28 14 -91 17 -426 21
-311 3 -396 2 -405 -8z m627 -327 c54 -11 89 -37 119 -87 21 -36 22 -48 19
-169 -3 -121 -5 -133 -31 -178 -33 -56 -48 -65 -129 -78 -34 -5 -83 -15 -109
-21 -46 -11 -49 -11 -78 17 -31 30 -38 62 -19 97 6 11 12 77 14 147 2 103 -1
138 -17 190 -19 62 -19 65 -2 78 20 15 163 17 233 4z m-371 -892 c-2 -6 -8
-10 -13 -10 -5 0 -11 4 -13 10 -2 6 4 11 13 11 9 0 15 -5 13 -11z m7 -94 c7
-61 3 -75 -24 -75 -33 0 -46 27 -33 64 7 18 12 40 12 49 0 10 8 17 19 17 15 0
20 -10 26 -55z m738 -85 l46 -20 5 -98 c2 -53 7 -117 11 -142 5 -38 1 -52 -22
-91 -15 -25 -47 -63 -69 -83 -42 -36 -43 -36 -145 -41 -66 -2 -118 -10 -144
-20 -31 -14 -46 -15 -74 -7 -27 9 -38 8 -55 -3 -27 -20 -43 -19 -72 4 -23 18
-28 19 -66 5 -54 -19 -95 -18 -138 4 -30 14 -35 21 -32 47 2 18 15 41 33 58
35 32 67 29 114 -12 45 -39 108 -57 148 -43 18 6 50 9 72 6 30 -5 44 -2 54 10
7 9 22 16 32 16 39 0 151 98 185 163 9 16 17 63 19 105 3 69 20 134 41 155 9
9 4 10 57 -13z"/>
<path d="M9645 8030 c-49 -3 -100 -10 -111 -17 -12 -7 -43 -17 -69 -23 -27 -6
-61 -22 -77 -35 -16 -14 -36 -25 -43 -25 -21 0 -134 -131 -147 -170 -6 -19
-19 -46 -30 -60 -11 -15 -22 -57 -28 -105 -6 -44 -17 -116 -26 -160 -12 -64
-15 -146 -13 -417 2 -277 0 -339 -11 -353 -12 -14 -25 -16 -77 -11 -83 9 -103
-2 -103 -54 0 -60 23 -70 132 -60 48 5 92 11 98 15 5 3 10 25 10 49 0 36 4 45
25 54 14 7 39 12 55 12 16 0 41 -5 55 -12 21 -9 25 -18 25 -52 0 -60 -11 -70
-77 -76 l-58 -5 -8 -40 c-32 -164 -29 -166 133 -139 28 4 39 1 54 -15 19 -20
19 -24 2 -115 -9 -51 -14 -100 -11 -107 3 -8 19 -22 35 -31 16 -9 37 -33 47
-53 l17 -35 330 2 331 3 23 48 c25 52 39 57 99 32 85 -36 98 -14 82 130 -13
128 -8 139 57 129 53 -8 55 -3 52 133 -3 96 -1 103 22 128 23 24 23 27 8 53
-21 37 -31 133 -30 280 1 137 9 127 -88 113 -80 -12 -92 -3 -88 67 l3 57 85 0
85 0 3 67 c5 104 -14 309 -31 348 -9 19 -19 56 -22 82 -4 29 -16 59 -31 77
-13 16 -24 35 -24 43 0 19 -119 148 -136 148 -7 0 -25 11 -40 25 -14 13 -43
28 -63 31 -20 4 -56 15 -81 24 -51 20 -196 28 -345 20z m290 -146 c145 -35
215 -79 262 -168 72 -137 74 -142 80 -297 l6 -147 -26 -17 c-15 -9 -27 -24
-27 -32 0 -8 -11 -28 -25 -45 -14 -16 -25 -40 -25 -53 0 -12 -7 -28 -15 -35
-13 -11 -15 -7 -15 24 0 21 5 46 11 58 9 16 7 24 -10 42 -12 12 -21 35 -21 51
0 16 -5 43 -12 60 -9 27 -8 36 5 55 15 21 14 27 -5 77 -13 37 -18 65 -14 89 5
26 1 44 -20 81 -44 77 -81 120 -116 133 -18 7 -43 22 -55 33 -13 11 -40 21
-60 23 -21 1 -66 5 -100 9 -42 5 -63 4 -63 -3 0 -14 -54 -32 -77 -26 -12 3
-32 -7 -55 -28 -19 -18 -46 -40 -60 -50 -42 -28 -107 -193 -94 -236 4 -12 0
-34 -8 -51 -9 -17 -16 -47 -16 -68 0 -66 -18 -110 -53 -132 -34 -21 -67 -68
-67 -95 0 -20 -16 -21 -23 -2 -8 21 2 310 13 376 15 94 50 176 101 240 27 33
49 65 49 70 0 6 13 10 29 10 17 0 43 11 62 27 26 22 41 27 84 26 29 -1 69 4
89 11 45 15 188 10 271 -10z m-22 -215 c31 -22 59 -50 62 -62 5 -24 20 -114
35 -214 5 -34 11 -191 13 -350 3 -233 1 -295 -11 -326 -13 -34 -13 -40 2 -55
11 -13 16 -43 18 -114 4 -115 -5 -132 -52 -105 -24 15 -36 16 -69 7 -44 -12
-51 -23 -51 -85 0 -25 -5 -45 -12 -47 -7 -3 -92 -2 -188 1 l-175 6 -3 54 c-5
82 3 101 39 101 36 0 72 17 64 31 -4 5 -19 9 -34 9 -50 0 -51 9 -41 237 5 116
12 222 15 236 4 14 1 35 -5 47 -10 18 -18 21 -48 16 -136 -22 -126 -25 -136
40 -11 64 7 76 104 68 92 -8 95 -4 80 90 -12 76 6 322 26 353 8 13 37 41 65
63 l51 40 97 0 98 0 56 -41z m-629 -650 c20 -12 36 -26 36 -33 0 -7 13 -22 29
-33 24 -19 29 -30 35 -87 3 -35 4 -83 0 -105 -8 -49 -24 -52 -77 -17 -19 13
-43 26 -54 28 -14 3 -18 13 -19 53 0 28 -2 82 -4 121 -2 63 2 94 15 94 2 0 20
-9 39 -21z m976 -45 c41 -45 42 -48 37 -96 -4 -27 0 -97 9 -155 11 -79 11
-109 3 -119 -6 -8 -14 -44 -17 -81 -3 -47 -12 -77 -29 -101 -12 -19 -23 -43
-23 -52 0 -10 -8 -28 -18 -41 -10 -13 -31 -50 -47 -82 -15 -32 -38 -65 -49
-72 -52 -33 -145 -45 -349 -46 -111 0 -211 3 -222 7 -33 12 -55 36 -55 60 0
30 24 36 90 24 29 -5 91 -10 137 -10 99 0 149 20 201 81 19 22 41 39 51 39 25
0 95 77 126 139 21 42 25 62 20 90 -9 52 -8 84 5 194 8 70 8 107 1 129 -8 23
-7 35 4 51 8 12 15 36 15 54 0 31 2 33 34 33 27 0 42 -9 76 -46z"/>
<path d="M9934 6695 c-8 -21 2 -45 19 -45 20 0 40 27 33 45 -7 19 -45 20 -52
0z"/>
<path d="M11929 8024 c-5 -6 -4 -44 3 -92 9 -63 9 -95 0 -137 -13 -64 -8 -83
22 -90 11 -3 91 -1 176 3 85 5 166 4 179 0 21 -8 23 -13 17 -51 -3 -23 -7
-361 -7 -752 -1 -390 -5 -746 -10 -789 -10 -89 -5 -123 18 -128 9 -2 92 -2
184 0 144 2 169 5 169 18 0 9 -18 22 -40 31 -55 22 -56 53 -2 53 21 0 47 7 58
15 19 12 20 20 13 57 -4 24 -8 46 -9 51 0 11 -36 9 -64 -4 -14 -7 -40 -9 -60
-5 -28 5 -37 13 -46 41 -6 19 -9 43 -5 54 7 24 71 35 114 20 67 -23 62 -71 60
692 -1 387 2 694 7 698 5 5 94 4 197 -2 169 -9 189 -9 204 6 14 14 15 23 5 67
-16 68 -14 146 3 195 10 27 11 43 4 50 -14 14 -1178 14 -1190 -1z m979 -130
c36 -6 43 -10 40 -28 -2 -16 -11 -22 -37 -24 -19 -2 -44 -10 -56 -18 -15 -10
-35 -13 -62 -8 -44 7 -66 -2 -125 -48 -63 -50 -85 -112 -87 -255 0 -13 -1 -40
-2 -60 -1 -21 -2 -267 -3 -547 l-2 -509 -47 -41 c-27 -23 -47 -50 -47 -61 0
-11 -4 -27 -10 -35 -15 -23 -33 35 -19 62 6 12 8 35 4 57 -4 20 -7 261 -6 536
1 324 -2 547 -10 633 l-12 134 -46 47 c-67 69 -105 88 -191 96 -92 9 -116 18
-123 44 -4 18 1 21 52 26 31 3 63 8 71 10 27 6 674 -4 718 -11z m-410 -1716
c-4 -27 -28 -36 -28 -10 0 20 8 32 22 32 5 0 8 -10 6 -22z"/>
<path d="M11106 6979 c-64 -9 -78 -20 -74 -59 3 -21 11 -26 63 -37 77 -16 138
-16 153 -1 18 18 15 95 -4 102 -20 8 -62 6 -138 -5z"/>
<path d="M10480 6925 c-16 -19 -5 -47 17 -43 11 2 18 12 18 27 0 29 -17 37
-35 16z"/>
<path d="M8193 6808 c-42 -20 -16 -58 40 -58 34 0 120 31 110 40 -9 8 -95 30
-115 29 -7 0 -23 -5 -35 -11z"/>
<path d="M12805 6310 c-16 -4 -42 -11 -57 -14 -19 -4 -28 -13 -28 -27 0 -40
146 -79 178 -47 7 7 12 27 12 45 0 27 -5 35 -26 43 -29 11 -37 11 -79 0z"/>
<path d="M990 6285 c0 -15 4 -24 10 -20 6 3 10 12 10 20 0 8 -4 17 -10 20 -6
4 -10 -5 -10 -20z"/>
<path d="M7610 5799 c-19 -4 -51 -5 -71 -2 -21 3 -53 0 -73 -7 -39 -12 -40
-16 -51 -110 -4 -30 -15 -69 -25 -86 -11 -17 -22 -57 -26 -90 -3 -33 -14 -71
-26 -87 -10 -15 -25 -60 -32 -100 -7 -40 -20 -84 -29 -98 -10 -15 -21 -60 -26
-100 -6 -58 -15 -84 -40 -121 -18 -27 -36 -48 -41 -48 -5 0 -30 11 -56 25 -54
29 -122 33 -175 11 -38 -15 -79 -6 -79 18 0 19 -31 36 -64 36 -14 0 -33 9 -43
19 -10 11 -31 24 -46 30 -35 13 -38 56 -5 67 12 3 37 23 57 43 44 46 53 102
45 273 -6 113 -10 132 -30 160 -13 17 -24 38 -24 45 0 7 -12 21 -27 30 -15 10
-35 26 -45 35 -9 9 -41 19 -75 23 -32 4 -73 11 -91 17 -18 5 -74 8 -125 7 -50
-2 -161 0 -244 5 l-153 9 -10 -29 c-8 -21 -8 -41 0 -74 8 -30 11 -135 9 -310
l-2 -265 39 -41 c36 -37 42 -40 74 -32 47 11 97 1 105 -20 8 -22 -37 -62 -71
-62 -32 0 -85 22 -103 43 -7 10 -28 17 -45 17 -58 0 -58 -12 0 -73 l54 -57 -5
-82 c-3 -46 -8 -95 -10 -110 -6 -41 17 -59 68 -52 34 5 46 2 60 -14 17 -18 17
-22 3 -57 -16 -37 -17 -38 -60 -32 -29 4 -47 2 -54 -6 -16 -20 -22 -151 -9
-178 19 -36 80 -47 267 -48 144 0 171 2 209 19 53 24 131 26 217 4 35 -8 76
-14 91 -12 26 3 28 6 28 48 0 41 -2 45 -25 48 -55 6 -70 13 -70 31 0 24 18 31
47 20 58 -21 74 27 43 135 -19 69 -20 77 -5 99 14 22 13 28 -15 83 l-29 59
-93 2 c-51 1 -106 4 -123 5 l-30 3 0 -119 c0 -115 -1 -119 -25 -135 -13 -9
-37 -28 -52 -43 -48 -46 -155 -50 -190 -7 -15 18 -18 43 -19 163 0 77 -4 162
-8 189 -5 31 -4 52 3 61 8 10 50 15 144 20 l133 5 17 -29 17 -30 102 0 c99 0
103 -1 136 -30 19 -17 48 -33 65 -36 29 -6 37 -1 65 38 16 23 154 29 168 7 5
-8 9 -68 9 -134 0 -66 5 -137 11 -158 5 -21 7 -47 4 -58 -6 -17 -12 -19 -37
-14 -23 5 -35 2 -54 -16 -20 -18 -24 -32 -24 -76 0 -30 -7 -67 -15 -82 -12
-24 -12 -31 -1 -47 12 -16 28 -18 125 -18 72 0 115 4 122 11 10 10 8 32 -5 99
-17 86 -17 88 3 108 18 17 25 18 57 8 60 -18 74 -4 74 74 l0 66 28 -8 c15 -4
89 -8 165 -9 162 0 163 -1 146 -88 -5 -31 -8 -100 -7 -153 l3 -98 149 -1 c162
-1 174 3 137 51 -12 15 -21 33 -21 40 0 18 -44 46 -61 39 -23 -9 -49 17 -52
50 -2 29 -1 30 44 30 61 0 103 22 94 50 -18 55 -23 157 -11 233 18 111 12 138
-35 168 -32 20 -39 30 -39 57 0 18 -9 49 -20 69 -10 20 -24 67 -31 105 -6 37
-20 82 -30 98 -10 17 -23 61 -29 99 -6 37 -17 78 -26 91 -8 12 -19 51 -25 86
-10 62 -51 181 -71 207 -12 13 -18 14 -68 1z m-1400 -169 c0 -10 -51 -60 -61
-60 -13 0 -18 44 -7 57 12 15 68 18 68 3z m408 -33 c2 -11 13 -28 23 -38 14
-14 19 -31 17 -51 -5 -51 -25 -44 -32 12 -5 40 -10 50 -26 50 -20 0 -44 32
-33 44 13 13 48 1 51 -17z m989 -8 c4 -12 17 -42 30 -66 29 -56 29 -78 -1
-122 -24 -35 -25 -38 -15 -141 6 -58 14 -138 18 -178 5 -61 11 -76 34 -98 24
-22 26 -30 21 -67 -4 -26 -17 -53 -33 -70 -24 -25 -36 -28 -113 -34 -113 -8
-138 -1 -138 36 0 17 6 31 15 35 22 8 45 68 45 116 0 22 9 63 20 92 27 72 30
292 4 302 -20 8 -16 37 16 144 21 72 21 72 56 72 28 0 37 -5 41 -21z m-1150
-45 c60 -9 73 -40 73 -176 0 -113 -1 -120 -25 -144 -30 -30 -105 -63 -161 -71
-37 -5 -46 -2 -69 21 -26 26 -27 30 -19 84 11 73 11 130 1 213 l-8 67 28 10
c26 10 102 8 180 -4z m1395 -649 c13 -39 18 -77 15 -109 -2 -27 0 -64 6 -83 9
-29 8 -37 -11 -56 l-22 -21 0 21 c0 14 -8 23 -24 27 -38 9 -69 71 -60 120 7
47 21 78 40 89 8 5 11 19 7 43 -5 31 -3 36 12 33 12 -3 24 -24 37 -64z m-524
-14 c7 -4 14 -30 16 -56 2 -43 -1 -53 -33 -89 -19 -23 -37 -43 -38 -45 -1 -2
-9 2 -18 9 -9 8 -15 28 -14 54 1 22 -2 52 -5 66 -5 21 0 29 26 47 37 24 47 26
66 14z m-638 -285 c0 -55 -16 -84 -56 -101 -45 -18 -44 -18 -44 -1 0 8 13 29
29 47 17 18 35 45 42 61 16 38 29 35 29 -6z"/>
<path d="M7533 5430 c-13 -5 -23 -16 -23 -25 0 -11 12 -15 50 -15 54 0 62 10
28 34 -25 18 -25 18 -55 6z"/>
<path d="M8094 5799 c-13 -21 -3 -997 11 -1018 3 -6 16 -11 29 -11 12 0 31 -6
42 -14 26 -20 8 -48 -38 -59 l-35 -8 -6 -97 c-11 -153 -9 -238 6 -250 7 -6 32
-9 57 -7 136 13 286 13 310 1 38 -20 266 -28 280 -11 19 23 8 68 -20 82 -25
13 -25 13 -3 19 33 9 46 92 21 127 -12 16 -24 16 -133 7 -163 -13 -302 -13
-307 1 -5 16 1 580 7 604 2 11 17 27 32 35 l28 16 -4 217 c-2 154 1 231 10
267 12 46 11 52 -8 78 -15 20 -28 26 -49 25 -91 -7 -114 -7 -166 0 -41 6 -58
5 -64 -4z"/>
<path d="M9355 5774 c-22 -24 -35 -48 -35 -65 0 -46 -20 -132 -39 -169 -10
-19 -21 -57 -25 -83 -3 -27 -15 -70 -27 -95 -11 -26 -25 -74 -30 -106 -6 -33
-18 -71 -28 -85 -11 -15 -22 -53 -26 -86 -10 -94 -13 -104 -46 -120 -28 -15
-33 -15 -54 -1 -33 21 -129 46 -180 46 -46 0 -65 -13 -65 -46 0 -39 21 -45
118 -38 64 5 91 3 96 -5 4 -6 10 -82 12 -168 5 -177 -3 -203 -55 -203 -40 0
-48 -15 -55 -94 -4 -38 -9 -79 -12 -91 -10 -42 14 -51 126 -50 110 2 125 9
115 55 -2 14 -8 53 -11 87 -9 81 2 96 61 87 26 -3 51 -1 64 6 20 10 22 17 16
64 l-7 53 177 -1 c159 -1 178 -3 190 -19 11 -16 11 -26 0 -65 -7 -26 -17 -91
-20 -144 -7 -97 -7 -97 18 -109 17 -8 38 -8 68 -2 28 6 71 6 117 -1 95 -13
107 -4 72 61 -18 33 -34 50 -57 57 -74 25 -83 80 -15 91 45 8 92 25 92 34 0 4
-6 15 -14 26 -25 37 -28 139 -6 223 11 42 20 91 20 109 0 29 -5 35 -49 57
l-49 25 -7 73 c-4 42 -15 87 -26 106 -10 18 -23 62 -29 97 -6 35 -19 79 -30
98 -11 18 -23 56 -26 83 -4 27 -15 65 -25 85 -10 20 -24 73 -32 118 -20 115
-38 133 -132 129 -38 -2 -80 1 -93 5 -19 7 -29 2 -57 -29z m168 -191 c26 -38
32 -67 29 -132 -2 -33 -3 -33 -39 -28 -37 6 -74 -5 -61 -19 4 -3 22 -7 40 -8
30 -1 33 -5 40 -41 4 -22 7 -80 7 -130 -2 -168 -1 -181 26 -213 34 -41 36
-128 3 -167 -20 -22 -34 -27 -103 -34 -76 -8 -117 -2 -128 16 -7 11 35 171 54
203 13 23 17 179 10 419 -1 30 3 68 10 85 14 35 58 85 75 86 6 0 23 -17 37
-37z m222 -650 c17 -40 28 -101 27 -148 -1 -27 -2 -69 -2 -92 0 -23 -4 -44 -9
-48 -16 -9 -113 115 -106 134 20 49 44 119 50 144 6 30 29 36 40 10z m-506
-94 c6 -19 11 -42 11 -49 0 -18 -50 -70 -66 -70 -18 0 -21 8 -29 72 -7 56 -6
58 26 88 37 34 33 36 58 -41z"/>
<path d="M10040 5789 c-9 -15 -11 -48 -6 -103 3 -45 6 -242 7 -439 1 -307 -1
-360 -14 -381 -13 -19 -14 -39 -8 -102 8 -82 3 -150 -20 -316 -10 -78 -11
-100 -1 -110 9 -9 50 -13 130 -13 l117 0 -3 106 -3 107 32 36 32 37 -6 192
c-5 144 -11 212 -27 272 -12 51 -20 113 -20 172 0 50 -3 98 -6 107 -7 19 -40
21 -50 4 -14 -22 -22 30 -23 139 -1 95 1 103 21 117 37 26 51 19 97 -49 50
-74 48 -94 -8 -136 -17 -13 -31 -26 -31 -31 0 -4 22 -8 49 -8 74 0 76 -5 76
-204 0 -158 2 -174 22 -206 12 -19 25 -56 28 -83 4 -26 15 -58 25 -70 10 -13
22 -41 26 -63 10 -56 27 -85 80 -139 54 -53 59 -83 24 -150 -28 -54 -25 -68
15 -104 41 -35 84 -40 142 -16 33 14 46 14 125 0 49 -8 99 -21 111 -29 38 -24
83 -29 101 -11 29 29 14 48 -46 59 -35 6 -38 10 -38 39 0 18 4 47 9 65 14 48
-12 72 -79 72 -55 0 -70 15 -70 68 0 35 18 45 65 36 21 -4 44 0 63 10 29 15
30 16 17 53 -11 31 -20 214 -15 298 1 11 -2 67 -6 125 -6 91 -4 108 10 122 20
21 20 26 -4 73 -18 35 -20 53 -15 145 2 58 6 149 7 204 3 119 -3 127 -84 115
-30 -4 -78 -3 -111 3 -42 8 -61 8 -69 0 -12 -12 -13 -437 -2 -609 l7 -92 43 6
c47 6 104 -11 104 -31 0 -25 -28 -49 -66 -55 l-39 -7 3 -59 c3 -74 16 -92 48
-70 32 20 44 19 44 -6 0 -11 5 -29 11 -41 16 -30 3 -80 -36 -137 -19 -28 -35
-54 -35 -59 0 -5 -7 -23 -16 -41 -12 -24 -13 -36 -5 -44 12 -12 15 -47 4 -47
-31 1 -83 87 -83 137 0 9 -13 31 -30 49 -16 19 -33 47 -36 62 -4 15 -13 35
-21 44 -22 25 -13 62 16 66 23 4 24 5 17 75 -4 39 -10 75 -15 80 -5 5 -33 4
-62 -1 -62 -12 -86 -3 -95 33 -12 47 1 58 55 52 32 -4 55 -1 66 7 16 11 16 15
-1 66 -10 30 -25 66 -35 80 -9 14 -20 43 -24 65 -4 22 -15 49 -26 61 -10 11
-23 44 -29 74 -6 30 -19 63 -29 74 -10 12 -22 39 -26 61 -3 22 -15 54 -26 71
-10 17 -19 41 -19 52 0 34 -22 72 -44 77 -12 3 -57 4 -101 2 -44 -1 -101 2
-127 7 -42 7 -47 6 -58 -15z m110 -1005 c0 -8 -4 -14 -9 -14 -11 0 -22 26 -14
34 9 9 23 -3 23 -20z m8 -98 c4 -17 -14 -46 -29 -46 -14 0 -21 41 -8 56 15 18
33 13 37 -10z"/>
<path d="M12380 5794 c-16 -18 -17 -65 -6 -164 7 -57 6 -68 -12 -90 -18 -22
-22 -23 -37 -10 -13 11 -42 15 -97 15 -75 -1 -79 -2 -107 -32 -51 -56 -161
-55 -161 2 0 32 22 43 81 37 l49 -5 0 41 c0 33 -7 47 -37 79 -61 62 -111 89
-203 107 -140 29 -384 3 -435 -44 -12 -11 -26 -20 -31 -20 -13 0 -72 -61 -90
-92 -67 -116 -78 -180 -80 -477 -2 -198 -6 -256 -16 -262 -7 -5 -19 -12 -26
-17 -17 -11 -25 -137 -11 -163 6 -11 26 -21 50 -25 49 -8 61 -27 47 -80 -6
-22 -8 -52 -4 -67 8 -34 40 -36 96 -7 79 40 130 22 130 -48 0 -37 -12 -42 -96
-42 -57 0 -66 -3 -75 -23 -7 -16 -7 -31 0 -50 l11 -28 102 0 c384 0 560 4 576
14 13 9 15 70 3 101 -4 11 -1 42 8 73 l16 53 46 0 c26 0 51 6 57 13 13 16 13
328 -1 345 -14 18 -201 17 -216 -2 -9 -10 -9 -44 0 -135 9 -94 9 -132 0 -162
-19 -63 -43 -72 -194 -74 -144 -3 -187 7 -208 47 -15 27 -17 137 -5 225 10 68
6 72 -64 87 -82 17 -76 67 10 78 67 8 74 16 61 64 -11 43 -7 274 7 367 7 46
16 65 41 90 31 32 32 32 134 32 l102 0 37 -40 c36 -38 37 -43 38 -112 0 -59 3
-74 18 -81 9 -5 70 -7 135 -4 139 5 142 8 122 96 -20 84 -16 89 66 81 53 -5
75 -3 100 9 30 15 34 15 48 1 13 -13 16 -47 16 -207 l0 -192 88 -1 87 0 0 42
c0 32 -4 43 -15 43 -8 0 -15 7 -15 15 0 8 6 15 13 15 22 0 127 -100 127 -121
0 -10 -9 -33 -20 -51 -11 -18 -20 -45 -20 -59 0 -14 -7 -34 -15 -45 -8 -10
-15 -28 -15 -38 0 -27 -22 -86 -32 -86 -10 0 -48 74 -48 93 0 8 9 22 20 32 39
35 68 125 40 125 -5 0 -13 0 -17 0 -5 1 -10 -14 -13 -32 -5 -30 -9 -33 -43
-36 -26 -2 -49 4 -73 19 -47 29 -56 16 -52 -78 3 -59 8 -76 26 -96 23 -25 23
-26 18 -231 -4 -113 -11 -217 -16 -231 -8 -20 -6 -29 10 -45 17 -17 29 -19 82
-14 100 8 121 13 143 34 20 19 28 19 206 10 101 -5 193 -11 204 -12 27 -4 41
32 49 124 6 69 5 79 -13 97 -17 17 -25 19 -52 9 -30 -10 -34 -9 -58 21 -14 17
-29 31 -33 31 -3 0 -15 -15 -26 -34 -17 -29 -26 -35 -54 -35 -18 1 -48 -2 -66
-6 -38 -9 -82 15 -82 44 0 27 -23 42 -77 49 -35 5 -49 12 -51 26 -5 25 14 36
64 36 22 0 49 6 59 14 18 13 18 18 3 127 -9 62 -14 119 -11 126 9 22 45 25
187 14 178 -13 225 1 179 52 -14 15 -18 37 -18 94 0 95 -4 98 -130 84 -115
-13 -262 -14 -269 -2 -9 13 -9 69 -1 137 5 36 3 82 -4 113 -18 86 -23 84 234
80 l220 -4 2 117 c2 132 -7 155 -56 143 -83 -20 -558 -20 -627 0 -13 4 -25 0
-34 -11z m203 -160 c3 -4 -2 -23 -13 -43 -10 -20 -22 -45 -25 -55 -5 -19 -6
-19 -21 2 -23 34 -15 85 16 93 35 10 36 10 43 3z m-53 -174 c0 -23 -4 -30 -20
-30 -14 0 -20 7 -20 23 0 27 7 37 27 37 8 0 13 -12 13 -30z m-1120 11 c0 -21
-13 -41 -26 -41 -14 0 -19 31 -7 43 10 10 33 8 33 -2z m1196 -892 c12 -13 19
-36 19 -60 0 -38 -1 -39 -36 -39 -34 0 -37 3 -43 34 -7 37 10 86 29 86 7 0 20
-9 31 -21z"/>
<path d="M12134 5085 c-12 -31 17 -70 56 -73 42 -4 107 13 140 38 l25 19 -29
11 c-17 6 -65 14 -108 17 -69 5 -78 4 -84 -12z"/>
<path d="M10652 5077 c-14 -16 -6 -27 20 -27 13 0 18 6 16 17 -4 22 -22 27
-36 10z"/>
<path d="M8785 4410 c3 -5 13 -10 21 -10 8 0 14 5 14 10 0 6 -9 10 -21 10 -11
0 -17 -4 -14 -10z"/>
</g>
</svg>
