<?xml version="1.0" standalone="no"?>
<!DOCTYPE svg PUBLIC "-//W3C//DTD SVG 20010904//EN"
 "http://www.w3.org/TR/2001/REC-SVG-20010904/DTD/svg10.dtd">
<svg version="1.0" xmlns="http://www.w3.org/2000/svg"
 width="490.000000pt" height="546.000000pt" viewBox="0 0 490.000000 546.000000"
 preserveAspectRatio="xMidYMid meet">
<metadata>
Created by potrace 1.16, written by Peter Selinger 2001-2019
</metadata>
<g transform="translate(0.000000,546.000000) scale(0.100000,-0.100000)"
fill="#000000" stroke="none">
<path d="M2325 5206 c-51 -14 -106 -69 -124 -124 -11 -33 -12 -55 -4 -100 6
-31 8 -61 4 -67 -34 -55 -40 -146 -11 -175 28 -28 27 -90 -1 -116 -17 -15 -20
-27 -16 -69 5 -53 19 -117 32 -149 14 -32 -17 -13 -52 32 -31 40 -31 41 -45
20 -21 -31 -38 -14 -38 36 0 76 -50 137 -100 121 -17 -5 -60 28 -60 46 0 11
-73 19 -86 8 -7 -6 -24 -7 -41 -2 -15 4 -36 6 -45 5 -16 -3 -38 11 -79 50 -16
15 -16 21 -4 61 13 43 12 45 -24 108 -44 76 -81 104 -153 113 -47 7 -55 5 -70
-14 -10 -12 -22 -37 -27 -56 -5 -18 -25 -53 -44 -76 -60 -74 -97 -140 -97
-174 0 -57 57 -108 175 -154 33 -13 72 -36 87 -52 15 -15 34 -28 43 -28 18 0
70 -52 89 -90 7 -14 18 -51 25 -83 l13 -59 -52 -84 c-28 -46 -50 -90 -47 -97
2 -6 22 16 43 50 35 56 64 80 64 53 0 -5 18 -10 40 -10 34 0 41 -4 46 -24 8
-34 1 -61 -16 -61 -36 -1 -60 -18 -68 -48 -5 -20 -18 -37 -35 -45 -15 -7 -27
-17 -27 -22 0 -5 -14 -25 -31 -44 -20 -23 -29 -42 -25 -54 4 -10 0 -32 -8 -48
-36 -75 -66 -142 -66 -147 0 -4 18 -18 40 -32 22 -14 40 -30 40 -35 0 -19 -31
-10 -81 25 -54 37 -64 41 -74 26 -3 -5 11 -22 30 -37 43 -32 39 -40 -10 -24
-27 9 -40 9 -48 1 -8 -8 1 -16 31 -28 31 -14 42 -24 42 -40 0 -27 2 -26 -173
-49 -44 -6 -53 -12 -107 -75 -71 -83 -161 -215 -220 -324 -53 -99 -73 -128
-126 -185 -72 -78 -88 -100 -234 -325 -265 -409 -335 -531 -359 -626 -10 -40
-25 -66 -59 -101 -40 -42 -45 -52 -44 -90 2 -47 15 -63 101 -119 46 -30 78
-36 109 -21 9 5 31 15 47 23 21 10 34 27 43 54 8 26 25 47 45 60 19 12 58 62
98 127 43 69 93 133 140 180 91 89 227 289 229 335 0 6 20 34 44 63 24 28 46
65 50 81 6 33 104 142 146 164 33 17 153 35 230 35 51 0 65 -4 85 -25 14 -13
25 -29 25 -35 0 -18 142 -780 165 -886 6 -26 -13 -36 -51 -25 -35 9 -57 67
-48 128 8 55 -6 73 -56 73 -34 0 -39 -4 -49 -31 -6 -18 -11 -39 -11 -48 0 -9
-5 -33 -11 -54 l-10 -37 -63 6 c-58 6 -63 5 -77 -17 -23 -34 -59 -178 -59
-230 0 -25 5 -50 12 -57 9 -9 9 -30 0 -89 -6 -43 -16 -118 -22 -168 -7 -49
-16 -120 -21 -157 -5 -37 -9 -107 -9 -155 0 -99 -10 -120 -44 -98 -44 29 -123
48 -202 49 -92 1 -127 -12 -145 -55 -19 -47 15 -83 105 -113 59 -20 177 -37
216 -32 25 3 50 2 56 -2 6 -4 14 -29 18 -57 4 -27 15 -61 23 -74 12 -18 14
-42 11 -100 -5 -72 -4 -76 23 -103 22 -23 36 -28 74 -28 61 0 90 28 99 96 14
96 18 114 30 114 7 0 23 24 37 53 26 56 49 69 79 42 24 -21 154 -39 237 -31
90 8 132 36 133 89 0 21 -8 32 -34 48 -34 20 -35 21 -29 72 7 64 36 163 71
242 27 60 27 61 30 340 2 192 -1 299 -9 340 -7 33 -11 95 -10 137 1 43 -3 79
-9 83 -14 8 -13 71 2 112 10 27 9 39 -5 69 -16 32 -16 39 -3 64 18 36 32 101
46 210 6 47 15 112 20 145 5 33 14 98 20 145 7 47 16 107 21 133 5 26 9 82 9
123 0 100 19 161 85 272 30 51 55 95 55 97 0 18 82 176 129 250 32 50 89 139
127 198 37 60 76 113 86 118 20 11 172 -12 208 -31 16 -8 27 -7 48 6 26 15 32
15 98 -4 84 -25 188 -47 317 -66 93 -14 103 -13 234 10 76 13 170 33 208 45
283 84 310 90 455 101 242 17 312 57 264 150 -12 23 -15 47 -11 83 8 78 3 81
-95 67 -116 -17 -111 -17 -104 21 18 87 18 92 -2 110 -19 18 -21 18 -39 -7
-10 -15 -36 -51 -59 -80 -37 -49 -50 -75 -68 -129 -10 -32 -107 -59 -357 -97
-36 -5 -92 -10 -125 -11 -61 -1 -133 -16 -86 -18 28 -1 29 -21 0 -21 -12 0
-32 -10 -45 -22 -19 -18 -27 -20 -41 -11 -9 6 -16 17 -16 26 1 10 -13 16 -50
20 -34 3 -71 17 -111 41 -33 20 -78 41 -100 47 -129 32 -161 48 -247 126 -26
24 -64 51 -85 60 -21 9 -48 26 -60 36 -14 13 -30 18 -45 14 -23 -6 -88 26 -88
44 0 5 -16 24 -36 42 -33 30 -36 37 -30 69 3 19 16 45 28 58 12 13 34 47 48
74 18 34 34 52 48 54 23 4 72 76 72 107 0 9 16 54 36 98 88 193 45 310 -121
337 -39 6 -89 16 -112 21 -53 11 -127 10 -178 -5z"/>
<path d="M2200 2740 c1 -111 -1 -205 -4 -208 -3 -3 -1 -11 5 -19 8 -9 39 -13
105 -13 l94 0 0 35 0 35 -53 0 c-29 0 -58 5 -65 12 -15 15 -16 170 -2 184 6 6
10 44 8 90 l-3 79 -43 3 -42 3 0 -201z"/>
<path d="M2464 2927 c-2 -7 -3 -105 -2 -217 l3 -205 36 -3 36 -3 6 167 c4 92
7 191 7 221 l0 53 -40 0 c-24 0 -43 -5 -46 -13z"/>
<path d="M2594 2926 c-3 -8 -3 -52 0 -98 8 -123 9 -147 3 -213 -3 -33 -3 -73
0 -88 5 -25 9 -28 42 -25 36 3 36 3 39 53 2 27 8 55 13 61 7 8 6 14 -1 19 -30
18 17 55 71 55 22 0 27 5 31 30 6 38 3 40 -47 40 -52 0 -67 16 -63 67 l3 38
65 5 c64 5 65 5 65 35 l0 30 -108 3 c-87 2 -108 0 -113 -12z"/>
<path d="M2884 2927 c-5 -14 1 -195 12 -346 l6 -84 51 7 c29 3 73 6 100 6 45
0 47 1 47 29 0 32 -14 41 -65 41 -38 0 -51 14 -46 50 2 14 4 34 5 45 1 17 9
21 49 23 46 3 47 4 47 37 0 34 0 34 -52 37 -52 3 -53 4 -58 38 -9 55 -4 60 61
60 54 0 59 2 65 24 3 14 3 30 -1 35 -10 17 -214 14 -221 -2z"/>
<path d="M3320 2721 l0 -221 40 0 40 0 0 60 c0 47 3 60 15 60 8 0 15 -9 15
-20 0 -12 10 -25 25 -32 18 -8 25 -19 25 -40 l0 -28 100 0 99 0 10 38 c6 20
11 67 11 104 0 63 -2 68 -25 74 -13 3 -29 12 -36 20 -6 8 -31 23 -55 33 -51
23 -70 65 -39 88 28 20 53 16 71 -13 12 -18 24 -24 43 -22 37 4 40 46 6 87
-25 29 -31 31 -90 31 -56 0 -66 -3 -94 -29 -25 -24 -31 -37 -31 -71 0 -59 26
-110 67 -126 18 -8 33 -19 33 -24 0 -6 10 -10 23 -10 41 0 50 -13 40 -61 -8
-43 -9 -44 -48 -44 -38 0 -40 2 -43 33 -3 28 -7 32 -32 32 -16 0 -31 -4 -34
-9 -3 -4 -17 -6 -31 -3 l-25 4 2 152 3 151 -42 3 -43 3 0 -220z"/>
<path d="M4036 2928 c-61 -197 -72 -223 -96 -235 -14 -7 -19 -13 -12 -13 18 0
16 -94 -3 -110 -8 -7 -15 -26 -15 -42 0 -27 2 -29 33 -26 26 2 32 7 31 26 0
12 3 22 7 22 4 0 21 12 38 26 22 18 40 24 63 22 31 -3 33 -6 38 -48 5 -44 6
-45 44 -48 37 -3 38 -2 34 23 -3 14 -1 28 3 31 17 10 10 118 -10 159 -17 33
-34 89 -67 208 -6 21 -82 25 -88 5z"/>
<path d="M4237 2934 c-11 -11 -8 -292 3 -299 7 -4 7 -12 0 -25 -14 -26 -13
-83 2 -98 17 -17 195 -17 200 0 3 7 2 23 0 35 -4 21 -10 23 -57 23 -72 0 -78
9 -71 117 4 48 7 124 9 168 l2 80 -40 3 c-23 2 -44 0 -48 -4z"/>
<path d="M4485 2930 c-9 -15 -4 -290 6 -296 5 -2 4 -16 -1 -30 -14 -35 -12
-78 2 -92 8 -8 46 -12 105 -12 l93 0 0 35 0 35 -54 0 c-75 0 -86 13 -86 105 0
41 5 77 10 80 6 3 10 46 10 96 l0 89 -39 0 c-22 0 -43 -4 -46 -10z"/>
<path d="M2416 2413 c-8 -32 -67 -227 -87 -290 -10 -34 -19 -69 -19 -78 0 -17
-12 -19 -92 -16 -37 2 -58 -1 -58 -8 0 -6 19 -11 45 -11 l45 0 0 -95 c0 -64
-4 -95 -11 -95 -22 0 -38 -35 -39 -82 l0 -48 55 0 c59 0 61 1 67 75 3 25 8 31
32 33 21 3 31 11 39 33 11 28 13 29 83 29 l72 0 4 -76 c2 -52 8 -78 18 -84 8
-5 44 -10 80 -10 50 0 61 3 52 12 -7 7 -12 22 -12 35 0 15 -8 27 -22 32 -22 8
-21 8 7 22 28 14 29 15 32 116 3 95 2 104 -17 115 -14 9 -30 44 -50 108 -16
52 -43 141 -60 198 l-32 102 -63 0 c-52 0 -65 -3 -69 -17z m113 -415 c1 -32
-23 -48 -68 -48 -26 0 -31 4 -31 24 0 12 4 36 9 52 5 16 14 54 21 84 22 100
22 100 46 5 13 -49 23 -102 23 -117z"/>
<path d="M2762 2258 c2 -95 7 -181 12 -190 6 -13 4 -18 -8 -18 -21 0 -20 -9 4
-45 14 -22 20 -47 20 -92 0 -60 1 -63 25 -63 14 0 25 -5 25 -10 0 -6 -11 -15
-25 -20 -22 -8 -25 -15 -25 -59 0 -77 12 -79 320 -56 47 4 87 9 89 11 3 2 -4
11 -15 19 -18 14 -18 16 -2 25 15 9 17 23 14 93 -2 45 -5 89 -7 97 -3 9 5 16
19 18 12 2 22 8 22 14 0 23 -35 67 -66 82 -40 19 -41 27 -11 67 19 26 22 43
22 112 0 102 -15 134 -75 165 -40 20 -59 22 -193 22 l-148 0 3 -172z m248 32
c25 -25 27 -105 4 -138 -12 -17 -25 -22 -60 -22 l-44 0 0 83 c0 46 3 87 7 90
14 15 74 6 93 -13z m30 -351 c0 -74 -2 -82 -26 -104 -31 -29 -88 -34 -98 -9
-3 9 -6 56 -6 104 l0 89 58 3 c31 2 60 2 65 0 4 -2 7 -39 7 -83z"/>
<path d="M3421 2408 c-67 -33 -96 -87 -111 -205 -6 -53 -11 -131 -10 -172 3
-103 4 -101 -30 -101 -23 0 -30 -4 -30 -20 0 -17 7 -20 44 -20 36 0 45 4 49
21 6 22 28 22 35 0 2 -7 -5 -15 -17 -18 -16 -4 -21 -13 -21 -39 0 -29 4 -34
33 -42 28 -7 32 -13 35 -46 6 -69 21 -76 153 -76 89 0 119 3 129 14 6 8 24 16
38 18 24 3 27 8 30 46 2 28 8 42 17 42 19 0 27 34 29 123 1 51 5 76 16 84 13
11 13 12 -2 13 -22 0 -24 30 -3 30 8 0 15 5 15 10 0 6 11 10 25 10 l25 0 0
-140 c0 -116 3 -142 15 -146 9 -4 15 -19 15 -39 0 -66 -4 -65 171 -65 l158 0
7 35 c5 29 12 37 38 43 l31 8 0 85 c0 80 -1 84 -22 87 -31 4 -29 20 2 28 l25
6 1 207 c1 113 5 188 8 166 l6 -40 72 -3 73 -3 2 -307 3 -307 58 -3 c40 -2 57
1 57 9 0 7 7 20 16 30 13 14 15 57 14 297 l0 281 67 3 68 3 3 58 3 57 -215 0
c-162 0 -216 -3 -220 -12 -5 -10 -7 -10 -12 0 -4 8 -29 12 -75 12 l-69 0 0
-239 c0 -228 -1 -239 -19 -244 -16 -4 -20 -15 -23 -63 l-3 -59 -43 1 c-59 1
-71 20 -72 117 l0 77 35 0 c19 0 35 5 35 10 0 6 -16 10 -35 10 l-35 0 -2 193
-3 192 -70 0 -70 0 -3 -157 -3 -158 -31 0 c-17 0 -39 -7 -49 -16 -10 -9 -23
-13 -28 -9 -19 11 -12 25 14 25 25 0 25 0 19 73 -15 183 -76 246 -239 247 -62
0 -90 -5 -124 -22z m183 -122 c20 -19 25 -38 31 -107 4 -46 4 -115 1 -154 -3
-38 -6 -88 -6 -111 1 -34 -4 -42 -25 -52 -14 -6 -25 -18 -25 -26 0 -34 -109
-32 -111 2 -1 9 -4 67 -8 127 -6 104 -7 110 -28 113 -13 2 -23 10 -23 17 0 7
10 15 23 17 20 3 22 9 27 81 4 67 8 82 29 98 33 27 86 25 115 -5z"/>
<path d="M2185 1610 c-9 -15 -10 -220 0 -249 4 -13 2 -21 -5 -21 -7 0 -8 -6 0
-19 5 -11 10 -41 10 -66 0 -38 4 -48 20 -52 11 -3 20 -9 20 -14 0 -4 -9 -13
-20 -19 -13 -7 -20 -21 -20 -41 0 -23 6 -32 28 -40 35 -14 259 -2 265 15 2 6
4 48 3 93 -1 61 2 83 12 83 7 0 15 7 18 15 4 9 19 15 35 15 29 0 29 0 29 -64
0 -45 -4 -67 -16 -76 -10 -9 -14 -26 -12 -49 3 -34 5 -36 38 -36 32 0 35 3 38
33 2 20 10 35 20 39 9 3 24 14 32 25 11 13 30 20 65 21 l50 2 3 -57 3 -58 50
0 50 0 -6 34 c-4 20 -2 36 4 40 17 11 14 146 -3 160 -8 6 -28 58 -46 116 -49
166 -53 175 -79 178 -59 9 -66 0 -106 -135 -50 -170 -46 -163 -106 -163 -39 0
-58 6 -85 26 -34 27 -34 27 -17 53 12 18 17 45 17 84 -1 63 -14 96 -47 117
-30 19 -231 27 -242 10z"/>
<path d="M2947 1613 c-4 -3 -7 -89 -7 -190 0 -136 3 -183 12 -183 9 0 9 -3 0
-12 -13 -13 -17 -124 -4 -131 4 -3 57 -8 119 -12 123 -7 124 -7 115 58 -4 26
-6 27 -68 27 -56 0 -65 3 -80 24 -16 26 -16 42 4 296 4 62 4 110 -1 118 -10
13 -79 17 -90 5z"/>
<path d="M3396 1598 c-9 -12 -16 -27 -16 -34 0 -6 -9 -40 -20 -75 -11 -35 -26
-82 -32 -104 -17 -58 -25 -65 -77 -66 -44 -2 -44 -2 -11 -8 34 -6 35 -8 38
-55 2 -38 -2 -56 -17 -77 -12 -16 -21 -44 -21 -64 0 -36 1 -36 38 -33 34 3 37
6 40 36 3 24 10 35 28 42 13 5 27 16 30 24 6 15 74 29 98 20 11 -4 16 -19 16
-44 0 -62 7 -70 57 -70 l45 0 -6 34 c-4 22 -2 36 5 38 18 6 14 147 -5 161 -8
7 -23 44 -34 82 -66 227 -60 215 -108 215 -23 0 -38 -7 -48 -22z"/>
<path d="M3650 1608 c-1 -7 -3 -78 -5 -158 -2 -80 -6 -193 -10 -252 -7 -103
-6 -106 15 -113 12 -4 32 -4 45 -1 26 7 31 29 43 183 4 50 10 94 13 97 3 3 13
-18 24 -47 10 -28 29 -73 42 -99 12 -26 23 -61 23 -77 0 -39 23 -51 94 -51
l56 0 0 40 c0 22 -4 40 -10 40 -13 0 -13 27 0 32 10 3 11 299 1 411 -1 4 -21
7 -46 7 l-45 0 0 -129 c0 -127 1 -130 23 -134 20 -3 20 -4 3 -12 -12 -5 -21
-3 -26 5 -7 11 -14 11 -33 3 -13 -6 -29 -8 -36 -3 -9 5 -5 9 12 14 l25 6 -46
112 c-26 62 -51 119 -55 126 -5 7 -29 12 -58 12 -32 0 -49 -4 -49 -12z"/>
<path d="M4190 1613 c-39 -8 -81 -43 -98 -82 -9 -20 -19 -83 -23 -141 -4 -58
-10 -117 -14 -132 -5 -20 -2 -31 14 -44 12 -10 21 -28 21 -40 0 -17 8 -24 33
-30 31 -6 31 -7 9 -15 -69 -26 47 -56 159 -42 60 8 63 9 71 40 5 18 17 37 28
43 17 9 20 21 20 70 0 55 -2 60 -25 66 -42 11 -55 -1 -55 -51 0 -57 -25 -85
-76 -85 -61 0 -74 13 -74 74 0 41 -4 55 -17 60 -14 6 -14 8 -1 19 11 8 17 36
20 90 5 83 23 117 62 117 33 0 64 -27 68 -58 3 -25 6 -27 48 -27 43 0 45 1 48
33 3 30 6 32 42 32 l39 0 5 -117 c3 -65 9 -161 13 -213 l8 -95 40 3 c22 1 69
4 105 6 36 2 71 4 78 5 7 1 12 15 12 35 0 37 -21 51 -72 47 -53 -4 -65 11 -60
76 3 32 10 61 16 65 6 4 33 8 59 8 l48 0 -3 38 -3 37 -65 5 -65 5 0 55 0 55
75 5 c81 5 89 13 76 66 l-7 25 -127 -3 -127 -3 -3 -47 -3 -48 -37 0 c-20 0
-48 -3 -62 -6 -22 -5 -23 -4 -7 6 16 11 16 13 1 40 -10 15 -29 34 -43 40 -30
14 -114 21 -151 13z"/>
</g>
</svg>
